<?xml version="1.0" encoding="utf-8"?>
<svg xmlns="http://www.w3.org/2000/svg" height="512pt" version="1.1" viewBox="0 0 512 512" width="512pt">
<path d="M 0.00 0.00 L 512.00 0.00 L 512.00 512.00 L 0.00 512.00 L 0.00 0.00 Z" fill="#eae8eb" opacity="1.00" stroke="#eae8eb" stroke-width="0.25"/>
<path d="M 336.03 24.09 C 340.64 22.24 346.49 23.25 349.61 27.32 C 352.08 29.70 352.01 33.43 351.49 36.57 C 350.52 40.65 347.42 43.69 344.73 46.72 C 338.99 52.53 332.93 58.14 326.00 62.52 C 320.10 58.72 315.31 53.51 310.50 48.46 C 306.64 44.28 302.92 38.92 304.00 32.91 C 304.82 26.46 311.80 22.30 317.97 23.50 C 322.20 23.96 324.79 27.61 328.05 29.83 C 330.93 28.23 332.97 25.42 336.03 24.09 Z" fill="#ec6782" opacity="1.00" stroke="#ec6782" stroke-width="0.25"/>
<path d="M 199.55 29.45 C 205.02 28.91 208.83 33.33 211.42 37.53 C 211.71 37.54 212.29 37.57 212.58 37.59 C 215.51 34.01 217.46 28.03 223.11 28.44 C 224.74 30.69 227.00 32.97 226.71 35.99 C 225.65 43.18 221.27 49.26 216.78 54.76 C 215.74 55.87 214.52 56.88 213.04 57.33 C 209.44 56.61 207.55 53.28 205.19 50.84 C 201.65 47.35 198.58 43.43 195.52 39.53 C 192.88 35.96 194.75 29.77 199.55 29.45 Z" fill="#f6beca" opacity="1.00" stroke="#f6beca" stroke-width="0.25"/>
<path d="M 280.39 39.56 C 283.88 39.19 288.21 37.23 291.22 39.82 C 292.40 42.78 292.21 47.20 289.03 48.88 C 286.11 51.04 282.64 48.63 280.25 46.83 C 277.69 45.25 277.87 41.00 280.39 39.56 Z" fill="#ec9bae" opacity="1.00" stroke="#ec9bae" stroke-width="0.25"/>
<path d="M 374.45 41.56 C 377.18 40.71 379.56 43.31 378.74 46.01 C 378.56 49.24 375.83 51.56 373.61 53.59 C 371.31 54.86 369.30 52.75 368.15 50.97 C 366.79 48.89 365.29 46.11 366.69 43.67 C 369.21 42.73 371.83 42.12 374.45 41.56 Z" fill="#f4c1cf" opacity="1.00" stroke="#f4c1cf" stroke-width="0.25"/>
<path d="M 260.00 44.60 C 263.57 42.40 267.61 41.63 271.77 42.22 C 275.56 48.14 270.22 54.19 267.26 59.16 C 265.33 61.33 264.33 65.33 261.03 65.59 C 254.28 63.67 249.74 57.46 247.55 51.08 C 246.65 48.37 247.14 44.20 250.34 43.35 C 253.60 41.63 256.84 43.83 260.00 44.60 Z" fill="#f7becc" opacity="1.00" stroke="#f7becc" stroke-width="0.25"/>
<path d="M 128.01 51.52 C 130.70 49.07 133.61 46.70 137.09 45.51 C 141.41 44.83 146.50 44.84 149.71 48.31 C 153.91 51.95 153.30 58.44 151.04 62.99 C 146.60 72.09 140.05 80.17 132.18 86.53 C 122.74 81.62 114.37 74.49 108.22 65.81 C 105.48 62.31 104.60 57.71 105.67 53.42 C 107.51 48.94 112.06 45.37 117.04 45.59 C 121.38 45.85 125.03 48.56 128.01 51.52 Z" fill="#e788a0" opacity="1.00" stroke="#e788a0" stroke-width="0.25"/>
<path d="M 179.93 54.86 C 181.80 53.66 184.77 54.12 185.66 56.32 C 187.86 60.48 185.58 65.04 183.67 68.82 C 179.62 68.88 175.56 67.25 172.83 64.23 C 171.29 62.34 171.86 59.84 172.46 57.71 C 175.09 57.16 177.59 56.17 179.93 54.86 Z" fill="#f5c2cf" opacity="1.00" stroke="#f5c2cf" stroke-width="0.25"/>
<path d="M 162.98 71.84 C 165.57 69.43 170.41 69.58 172.05 73.03 C 173.93 77.65 172.07 82.68 169.73 86.76 C 165.39 87.69 160.45 87.06 157.21 83.79 C 154.80 81.82 153.28 77.98 155.52 75.34 C 157.14 72.71 160.87 73.89 162.98 71.84 Z" fill="#ea89a0" opacity="1.00" stroke="#ea89a0" stroke-width="0.25"/>
<path d="M 362.46 79.12 C 363.74 72.83 370.92 68.60 376.96 70.93 C 380.66 72.77 380.80 77.29 381.50 80.84 C 384.82 80.29 388.25 79.83 391.59 80.56 C 394.34 81.13 396.30 84.38 395.17 87.05 C 393.81 91.55 390.62 95.30 386.64 97.75 C 381.01 101.23 374.89 104.47 368.16 104.94 C 364.99 96.75 360.39 88.15 362.46 79.12 Z" fill="#eb6682" opacity="1.00" stroke="#eb6682" stroke-width="0.25"/>
<path d="M 191.11 79.38 C 198.33 75.51 206.98 74.40 214.91 76.53 C 224.14 78.89 233.05 82.75 240.86 88.25 C 242.16 89.21 243.67 89.81 245.18 90.37 C 247.13 93.86 249.22 97.26 251.64 100.44 C 252.51 101.37 252.39 102.67 252.38 103.84 C 251.71 106.89 251.08 109.96 250.44 113.02 C 243.07 109.22 235.25 106.17 228.66 101.03 C 225.72 105.58 223.44 110.62 219.59 114.52 C 211.09 123.81 198.45 127.18 187.10 131.61 C 185.32 129.37 183.50 126.86 180.59 126.07 C 174.52 124.00 167.63 129.68 168.15 135.99 C 167.77 142.93 173.25 148.04 177.22 153.05 C 175.87 164.46 174.41 175.89 171.76 187.08 C 170.41 192.99 167.72 198.46 165.37 204.02 C 165.76 204.16 166.54 204.46 166.92 204.61 C 154.28 205.31 140.31 210.39 134.30 222.38 C 133.45 222.86 132.61 223.35 131.77 223.85 L 130.41 224.65 L 130.07 223.43 C 129.02 219.37 128.59 215.16 128.55 210.97 C 128.88 207.53 130.13 204.25 130.42 200.79 C 132.22 198.38 134.92 196.64 136.90 194.32 C 139.85 191.66 142.15 188.30 142.31 184.21 C 142.53 183.05 142.74 181.90 142.96 180.75 C 144.94 171.21 142.81 161.44 143.64 151.80 C 145.55 144.63 147.20 137.39 149.54 130.34 C 153.82 117.76 157.53 104.46 165.94 93.89 C 169.83 88.77 175.59 85.18 181.95 84.14 C 185.58 83.83 188.00 80.90 191.11 79.38 Z" fill="#493a4d" opacity="1.00" stroke="#493a4d" stroke-width="0.25"/>
<path d="M 274.51 78.65 C 285.05 75.61 296.19 75.44 307.04 76.57 C 312.73 76.93 318.18 79.14 323.93 78.86 C 327.42 78.83 331.47 78.10 334.25 80.79 C 335.65 82.88 333.36 84.66 332.08 86.04 C 336.01 88.39 335.57 93.41 338.26 96.69 C 342.65 103.20 346.01 110.94 345.11 118.97 C 344.11 127.43 341.77 135.66 340.06 143.99 C 338.74 149.47 337.30 156.47 331.15 158.39 C 327.14 158.72 322.89 159.32 319.02 157.91 C 311.81 154.73 307.65 147.22 306.11 139.79 C 305.20 135.88 304.41 130.56 299.89 129.29 C 296.08 129.31 292.30 130.78 288.50 129.48 C 287.66 132.95 286.92 136.45 286.13 139.93 C 283.34 136.28 283.04 131.70 283.43 127.30 C 279.37 124.84 274.26 122.17 273.51 116.97 C 273.09 113.96 275.47 111.79 277.74 110.29 C 273.75 110.29 269.54 110.67 265.76 109.15 C 262.03 106.53 258.91 102.50 253.93 102.36 C 253.54 102.73 252.76 103.47 252.38 103.84 C 252.39 102.67 252.51 101.37 251.64 100.44 C 249.22 97.26 247.13 93.86 245.18 90.37 C 245.76 87.08 246.16 83.24 248.97 81.00 C 251.77 79.55 255.02 80.58 257.99 80.82 C 263.60 81.77 269.15 80.11 274.51 78.65 Z" fill="#915d61" opacity="1.00" stroke="#915d61" stroke-width="0.25"/>
<path d="M 441.34 84.56 C 442.90 84.06 444.80 83.92 446.28 84.75 C 448.79 87.75 445.57 94.01 441.41 92.50 C 439.63 91.53 438.17 89.47 438.41 87.37 C 439.14 86.23 440.12 85.19 441.34 84.56 Z" fill="#f0bccc" opacity="1.00" stroke="#f0bccc" stroke-width="0.25"/>
<path d="M 442.29 85.11 C 443.89 84.54 444.46 85.07 444.00 86.72 C 442.39 87.29 441.82 86.75 442.29 85.11 Z" fill="#d4a4b0" opacity="1.00" stroke="#d4a4b0" stroke-width="0.25"/>
<path d="M 104.42 87.50 C 109.70 85.60 115.78 88.60 118.37 93.37 C 120.75 98.45 117.80 103.89 115.11 108.18 C 111.05 113.97 106.44 119.40 101.40 124.36 C 99.74 125.89 98.19 127.68 96.06 128.53 C 89.94 125.91 85.01 121.25 80.06 116.93 C 75.55 112.30 70.08 107.03 70.45 100.02 C 69.98 92.95 77.27 87.28 84.01 88.11 C 88.64 87.82 92.12 91.12 95.38 93.89 C 98.14 91.45 100.70 88.45 104.42 87.50 Z" fill="#e8899f" opacity="1.00" stroke="#e8899f" stroke-width="0.25"/>
<path d="M 398.42 92.39 C 399.71 91.18 401.51 92.02 403.04 92.02 C 405.71 92.55 408.78 91.08 411.14 92.90 C 413.43 97.68 409.36 103.12 405.02 104.96 C 401.19 102.28 395.02 97.47 398.42 92.39 Z" fill="#e78da5" opacity="1.00" stroke="#e78da5" stroke-width="0.25"/>
<path d="M 219.59 114.52 C 223.44 110.62 225.72 105.58 228.66 101.03 C 235.25 106.17 243.07 109.22 250.44 113.02 C 251.08 109.96 251.71 106.89 252.38 103.84 C 252.76 103.47 253.54 102.73 253.93 102.36 C 258.91 102.50 262.03 106.53 265.76 109.15 C 269.54 110.67 273.75 110.29 277.74 110.29 C 275.47 111.79 273.09 113.96 273.51 116.97 C 274.26 122.17 279.37 124.84 283.43 127.30 C 283.04 131.70 283.34 136.28 286.13 139.93 C 286.92 136.45 287.66 132.95 288.50 129.48 C 292.30 130.78 296.08 129.31 299.89 129.29 C 304.41 130.56 305.20 135.88 306.11 139.79 C 307.65 147.22 311.81 154.73 319.02 157.91 C 322.89 159.32 327.14 158.72 331.15 158.39 C 331.94 166.24 330.37 174.22 331.96 182.02 C 332.91 186.47 333.81 190.97 335.71 195.14 C 336.99 198.29 338.89 201.25 339.30 204.70 C 333.44 204.19 327.47 205.11 321.92 207.01 C 317.56 209.43 315.70 214.46 313.03 218.42 C 307.27 226.91 304.29 237.09 297.34 244.79 C 297.80 244.80 298.73 244.81 299.20 244.82 C 294.19 249.04 288.40 252.12 282.87 255.56 C 279.13 255.00 275.74 253.28 272.49 251.43 C 269.24 249.52 264.89 248.81 263.11 245.09 C 263.13 238.86 265.06 232.89 265.91 226.76 C 266.78 221.05 267.77 215.35 268.84 209.67 C 269.59 205.20 272.93 201.92 275.49 198.39 C 277.88 198.58 280.28 198.82 282.67 199.16 C 282.55 200.39 282.50 201.62 282.45 202.86 C 285.96 199.84 291.45 195.66 289.00 190.39 C 288.86 189.93 288.60 189.02 288.46 188.57 C 281.12 190.70 273.77 193.47 266.00 193.25 C 263.23 192.86 259.88 192.06 258.68 189.20 C 257.00 186.01 258.85 182.28 257.86 178.96 C 256.62 176.38 254.85 174.02 254.35 171.13 C 258.48 172.30 262.82 171.16 266.75 169.78 C 268.51 169.47 268.52 167.51 269.10 166.20 C 263.70 165.91 258.45 167.35 253.12 167.91 C 251.87 166.57 250.26 165.69 248.64 164.92 C 248.45 166.89 248.26 168.87 248.08 170.85 C 247.25 171.64 246.42 172.44 245.59 173.24 C 245.39 172.66 244.97 171.51 244.76 170.94 C 243.60 171.04 242.45 171.15 241.29 171.25 C 234.02 170.75 227.05 168.52 220.08 166.53 C 220.21 167.19 220.48 168.49 220.61 169.14 L 219.16 168.87 C 223.64 176.02 231.80 180.29 239.86 182.07 C 239.28 184.67 238.76 187.28 238.32 189.90 C 237.41 192.36 236.00 195.37 233.05 195.67 C 226.56 196.44 220.31 193.87 213.95 193.00 C 210.20 189.55 205.60 187.24 201.07 185.01 C 199.92 184.36 198.59 184.51 197.35 184.54 C 201.33 189.59 207.92 190.93 212.68 194.85 C 208.40 203.13 210.65 212.87 213.87 221.10 C 214.43 221.09 215.54 221.05 216.10 221.03 C 211.24 222.90 206.12 226.01 200.75 224.19 C 193.64 221.62 188.36 215.94 182.18 211.81 C 177.52 208.60 172.21 206.54 166.92 204.61 C 166.54 204.46 165.76 204.16 165.37 204.02 C 167.72 198.46 170.41 192.99 171.76 187.08 C 174.41 175.89 175.87 164.46 177.22 153.05 C 173.25 148.04 167.77 142.93 168.15 135.99 C 167.63 129.68 174.52 124.00 180.59 126.07 C 183.50 126.86 185.32 129.37 187.10 131.61 C 198.45 127.18 211.09 123.81 219.59 114.52 Z" fill="#f6b6a1" opacity="1.00" stroke="#f6b6a1" stroke-width="0.25"/>
<path d="M 427.27 106.16 C 431.78 103.77 435.34 108.23 439.12 109.87 C 442.78 110.23 445.16 106.05 448.86 106.36 C 452.01 106.85 455.77 107.71 457.32 110.84 C 460.05 115.18 458.35 120.69 455.40 124.45 C 451.54 130.56 445.31 134.41 440.30 139.44 C 438.77 140.94 436.79 139.62 435.44 138.61 C 428.75 133.29 420.93 128.04 418.33 119.42 C 417.03 113.45 422.36 108.49 427.27 106.16 Z" fill="#f6bcca" opacity="1.00" stroke="#f6bcca" stroke-width="0.25"/>
<path d="M 397.16 115.99 C 398.96 114.07 400.74 112.12 402.80 110.47 C 403.06 117.88 398.90 124.69 393.05 128.98 C 384.02 136.63 374.16 143.70 367.51 153.67 C 366.27 157.09 366.76 160.86 365.70 164.35 C 365.45 164.19 364.96 163.87 364.71 163.72 C 360.68 161.39 356.45 159.25 353.06 156.01 C 350.88 153.97 350.96 150.65 351.36 147.93 C 351.65 146.04 353.42 144.82 353.84 143.01 C 353.22 139.66 351.36 136.55 351.50 133.07 C 351.86 130.04 353.64 127.44 355.22 124.92 C 355.55 126.70 355.90 128.49 356.31 130.26 C 358.04 127.81 357.15 124.51 358.83 122.02 C 363.73 130.19 365.79 139.65 367.46 148.92 C 371.92 143.87 377.33 139.80 382.08 135.05 C 385.60 131.57 389.91 128.87 392.78 124.76 C 390.50 124.64 388.21 124.37 386.13 123.38 C 386.55 116.80 392.99 113.16 398.57 111.32 C 398.08 112.88 397.61 114.43 397.16 115.99 Z" fill="#728288" opacity="1.00" stroke="#728288" stroke-width="0.25"/>
<path d="M 376.43 124.73 C 375.17 119.38 377.54 112.02 383.70 111.11 C 383.63 111.88 383.50 113.42 383.43 114.19 C 386.40 114.46 386.47 117.89 386.32 120.15 C 385.92 123.00 382.99 124.07 380.99 125.64 C 382.61 125.32 384.12 124.66 385.68 124.10 C 385.34 126.77 384.80 129.43 383.74 131.92 C 380.01 131.53 377.70 127.90 376.43 124.73 Z" fill="#6a7075" opacity="1.00" stroke="#6a7075" stroke-width="0.25"/>
<path d="M 134.93 138.24 C 137.85 133.63 141.61 128.85 147.49 128.34 C 148.00 128.84 149.03 129.84 149.54 130.34 C 147.20 137.39 145.55 144.63 143.64 151.80 C 142.52 154.79 141.06 157.67 140.36 160.81 C 139.32 161.26 138.29 161.71 137.26 162.16 C 136.93 163.46 136.59 164.76 136.27 166.06 C 136.00 165.59 135.46 164.65 135.19 164.18 C 134.70 165.13 134.21 166.08 133.72 167.03 C 131.82 165.72 130.11 164.16 128.60 162.43 C 124.90 158.35 120.05 155.61 115.89 152.09 C 112.43 147.92 111.05 141.63 113.80 136.73 C 115.66 133.06 120.15 131.52 124.06 132.16 C 128.47 132.48 131.15 136.47 134.93 138.24 Z" fill="#f6bfcc" opacity="1.00" stroke="#f6bfcc" stroke-width="0.25"/>
<path d="M 211.98 132.40 C 212.67 130.22 215.15 129.91 217.04 129.32 C 224.80 127.22 232.66 129.80 240.19 131.58 C 238.54 134.52 235.02 135.14 231.92 134.73 C 225.25 134.15 218.70 132.48 211.98 132.40 Z" fill="#4a3042" opacity="1.00" stroke="#4a3042" stroke-width="0.25"/>
<path d="M 250.26 130.40 C 254.52 128.63 259.32 127.52 263.84 129.02 C 265.84 129.81 268.61 130.43 268.92 132.97 C 267.17 133.61 265.30 132.81 263.52 132.73 C 259.05 132.01 254.60 133.35 250.13 132.95 C 250.16 132.31 250.23 131.04 250.26 130.40 Z" fill="#7b4c51" opacity="1.00" stroke="#7b4c51" stroke-width="0.25"/>
<path d="M 244.13 141.37 C 245.72 138.48 246.52 135.14 248.70 132.60 C 248.36 139.72 250.86 147.28 247.68 154.02 C 244.31 154.18 242.68 150.72 241.66 148.06 C 241.64 145.62 243.23 143.55 244.13 141.37 Z" fill="#463445" opacity="1.00" stroke="#463445" stroke-width="0.25"/>
<path d="M 298.34 134.00 C 298.68 133.77 299.37 133.32 299.71 133.09 C 301.55 138.27 300.80 145.61 295.08 147.96 C 296.03 143.23 299.20 139.07 298.34 134.00 Z" fill="#df9385" opacity="1.00" stroke="#df9385" stroke-width="0.25"/>
<path d="M 177.34 135.37 C 178.84 132.74 183.33 134.75 182.58 137.59 C 181.47 140.14 179.53 142.18 177.52 144.03 C 176.87 141.24 175.52 138.03 177.34 135.37 Z" fill="#de968c" opacity="1.00" stroke="#de968c" stroke-width="0.25"/>
<path d="M 75.36 143.72 C 75.00 140.90 74.60 135.04 79.10 136.10 C 80.50 135.83 81.07 137.42 81.49 138.41 C 82.49 140.89 82.70 143.64 81.81 146.19 C 82.05 147.72 82.31 149.26 82.57 150.80 C 78.21 151.84 76.71 146.80 75.36 143.72 Z" fill="#5f6468" opacity="1.00" stroke="#5f6468" stroke-width="0.25"/>
<path d="M 362.46 144.35 C 361.70 141.56 361.33 138.62 362.48 135.88 C 362.97 138.65 364.14 141.75 362.46 144.35 Z" fill="#95a0a4" opacity="1.00" stroke="#95a0a4" stroke-width="0.25"/>
<path d="M 386.84 145.12 C 388.44 141.84 390.90 138.28 394.89 137.94 C 398.03 137.16 401.30 138.19 403.63 140.38 C 403.55 142.77 403.90 145.40 402.34 147.43 C 400.55 150.47 396.54 150.17 393.51 150.26 C 391.87 149.20 390.45 147.86 389.08 146.48 C 386.79 146.34 384.48 146.27 382.20 146.53 C 383.74 146.07 385.29 145.60 386.84 145.12 Z" fill="#69727b" opacity="1.00" stroke="#69727b" stroke-width="0.25"/>
<path d="M 255.42 142.70 C 257.48 142.63 259.35 143.46 261.03 144.56 C 259.04 144.34 256.12 145.38 255.42 142.70 Z" fill="#915d61" opacity="1.00" stroke="#915d61" stroke-width="0.25"/>
<path d="M 219.86 144.42 C 223.85 143.80 228.50 143.12 232.11 145.38 C 228.01 145.45 223.88 145.29 219.86 144.42 Z" fill="#7b4c51" opacity="1.00" stroke="#7b4c51" stroke-width="0.25"/>
<path d="M 382.20 146.53 C 384.48 146.27 386.79 146.34 389.08 146.48 C 390.45 147.86 391.87 149.20 393.51 150.26 C 393.22 150.63 392.64 151.36 392.34 151.73 C 392.74 153.04 393.15 154.36 393.56 155.68 C 396.06 155.52 398.59 155.17 401.10 155.50 C 405.03 157.10 405.71 162.84 402.88 165.77 C 397.88 171.47 389.56 171.55 382.57 171.79 C 382.05 170.06 381.55 168.32 381.05 166.59 C 380.20 163.59 379.22 160.62 378.04 157.73 C 376.93 153.64 378.87 149.06 382.20 146.53 Z" fill="#ea6580" opacity="1.00" stroke="#ea6580" stroke-width="0.25"/>
<path d="M 101.36 150.35 C 105.96 148.27 111.27 151.00 114.37 154.48 C 117.73 159.65 117.37 166.09 117.45 171.99 C 117.47 173.66 117.49 175.32 117.51 176.99 C 116.46 178.88 114.29 179.37 112.40 179.98 C 106.25 177.12 99.01 177.34 93.16 173.65 C 88.83 171.55 87.48 166.04 88.69 161.69 C 89.83 158.55 93.79 158.53 96.43 157.38 C 97.69 154.84 98.50 151.56 101.36 150.35 Z" fill="#e88ca1" opacity="1.00" stroke="#e88ca1" stroke-width="0.25"/>
<path d="M 428.43 150.53 C 431.10 150.20 433.93 151.27 435.80 153.19 C 438.09 155.78 437.49 159.73 439.29 162.51 C 443.61 162.68 448.26 162.26 451.88 165.13 C 456.54 167.79 454.15 174.13 451.26 177.21 C 444.80 183.73 435.07 184.41 426.48 185.66 C 424.11 185.77 420.54 185.78 419.73 183.02 C 419.51 179.64 420.08 176.20 419.24 172.88 C 417.98 168.22 418.06 163.20 419.69 158.64 C 421.25 154.90 424.23 151.25 428.43 150.53 Z" fill="#f6becb" opacity="1.00" stroke="#f6becb" stroke-width="0.25"/>
<path d="M 140.36 160.81 C 141.06 157.67 142.52 154.79 143.64 151.80 C 142.81 161.44 144.94 171.21 142.96 180.75 C 142.00 179.15 141.06 177.54 140.26 175.87 C 139.43 173.94 138.73 171.97 138.05 169.99 C 140.29 167.39 140.97 164.14 140.36 160.81 Z" fill="#6d757b" opacity="1.00" stroke="#6d757b" stroke-width="0.25"/>
<path d="M 81.48 156.97 C 81.89 168.62 82.95 181.47 90.89 190.71 C 86.80 187.20 85.07 181.96 83.18 177.10 C 81.10 170.62 81.12 163.70 81.48 156.97 Z" fill="#829494" opacity="1.00" stroke="#829494" stroke-width="0.25"/>
<path d="M 376.29 157.13 C 376.73 157.28 377.61 157.58 378.04 157.73 C 379.22 160.62 380.20 163.59 381.05 166.59 C 379.14 166.50 377.23 166.40 375.33 166.30 C 375.52 163.23 375.84 160.17 376.29 157.13 Z" fill="#897a81" opacity="1.00" stroke="#897a81" stroke-width="0.25"/>
<path d="M 236.97 159.81 C 239.46 160.03 241.14 161.94 242.17 164.06 C 241.28 166.09 239.50 164.39 238.26 163.69 C 236.88 162.94 237.34 161.07 236.97 159.81 Z" fill="#ce8b79" opacity="1.00" stroke="#ce8b79" stroke-width="0.25"/>
<path d="M 137.26 162.16 C 138.29 161.71 139.32 161.26 140.36 160.81 C 140.97 164.14 140.29 167.39 138.05 169.99 C 137.43 169.77 136.18 169.34 135.55 169.12 C 135.73 168.36 136.09 166.83 136.27 166.06 C 136.59 164.76 136.93 163.46 137.26 162.16 Z" fill="#e0acb8" opacity="1.00" stroke="#e0acb8" stroke-width="0.25"/>
<path d="M 364.71 163.72 C 364.96 163.87 365.45 164.19 365.70 164.35 C 365.14 168.65 366.86 172.76 366.87 177.04 C 367.05 183.52 367.95 189.93 368.46 196.38 C 366.62 192.82 365.70 188.92 365.53 184.93 C 358.96 185.18 352.51 183.73 346.43 181.38 C 346.39 180.91 346.33 179.98 346.29 179.51 C 348.65 178.15 350.85 176.53 352.98 174.82 C 350.17 174.11 347.07 173.18 345.42 170.61 C 344.12 168.11 346.52 165.47 349.04 165.45 C 354.75 164.90 359.40 168.97 364.81 170.00 C 364.80 167.90 364.77 165.81 364.71 163.72 Z" fill="#6f7a81" opacity="1.00" stroke="#6f7a81" stroke-width="0.25"/>
<path d="M 248.64 164.92 C 250.26 165.69 251.87 166.57 253.12 167.91 C 253.56 168.97 253.96 170.05 254.35 171.13 C 254.85 174.02 256.62 176.38 257.86 178.96 C 258.85 182.28 257.00 186.01 258.68 189.20 C 259.88 192.06 263.23 192.86 266.00 193.25 C 273.77 193.47 281.12 190.70 288.46 188.57 C 288.60 189.02 288.86 189.93 289.00 190.39 C 286.80 193.25 284.71 196.19 282.67 199.16 C 280.28 198.82 277.88 198.58 275.49 198.39 C 272.93 201.92 269.59 205.20 268.84 209.67 C 267.77 215.35 266.78 221.05 265.91 226.76 C 265.06 232.89 263.13 238.86 263.11 245.09 C 262.84 246.05 262.54 246.99 262.19 247.93 C 262.42 245.02 262.56 242.02 261.81 239.17 C 260.91 236.29 258.19 234.65 255.81 233.10 C 255.66 232.18 255.52 231.26 255.38 230.35 C 251.73 228.30 247.65 227.25 243.52 226.72 C 242.54 222.90 241.37 219.11 239.69 215.54 C 239.73 212.25 240.27 209.01 240.64 205.75 C 243.16 198.75 244.19 191.28 245.77 184.02 C 243.78 191.16 243.03 198.72 240.10 205.53 C 239.45 200.33 239.02 195.10 238.32 189.90 C 238.76 187.28 239.28 184.67 239.86 182.07 C 242.29 179.55 245.33 177.00 245.59 173.24 C 246.42 172.44 247.25 171.64 248.08 170.85 C 248.26 168.87 248.45 166.89 248.64 164.92 Z" fill="#eae8ea" opacity="1.00" stroke="#eae8ea" stroke-width="0.25"/>
<path d="M 253.12 167.91 C 258.45 167.35 263.70 165.91 269.10 166.20 C 268.52 167.51 268.51 169.47 266.75 169.78 C 262.82 171.16 258.48 172.30 254.35 171.13 C 253.96 170.05 253.56 168.97 253.12 167.91 Z" fill="#fffcf9" opacity="1.00" stroke="#fffcf9" stroke-width="0.25"/>
<path d="M 220.08 166.53 C 227.05 168.52 234.02 170.75 241.29 171.25 C 242.16 171.98 243.04 172.69 243.90 173.44 C 240.82 178.09 235.06 175.99 230.80 174.56 C 227.04 173.50 223.93 171.09 220.61 169.14 C 220.48 168.49 220.21 167.19 220.08 166.53 Z" fill="#fefaf8" opacity="1.00" stroke="#fefaf8" stroke-width="0.25"/>
<path d="M 135.55 169.12 C 136.18 169.34 137.43 169.77 138.05 169.99 C 138.73 171.97 139.43 173.94 140.26 175.87 C 139.66 177.19 139.06 178.52 138.47 179.85 C 138.09 178.88 137.71 177.91 137.33 176.95 C 137.21 177.76 136.98 179.37 136.86 180.18 C 135.34 176.69 135.74 172.82 135.55 169.12 Z" fill="#dedddc" opacity="1.00" stroke="#dedddc" stroke-width="0.25"/>
<path d="M 219.16 168.87 L 220.61 169.14 C 223.93 171.09 227.04 173.50 230.80 174.56 C 235.06 175.99 240.82 178.09 243.90 173.44 C 243.04 172.69 242.16 171.98 241.29 171.25 C 242.45 171.15 243.60 171.04 244.76 170.94 C 244.97 171.51 245.39 172.66 245.59 173.24 C 245.33 177.00 242.29 179.55 239.86 182.07 C 231.80 180.29 223.64 176.02 219.16 168.87 Z" fill="#e0697c" opacity="1.00" stroke="#e0697c" stroke-width="0.25"/>
<path d="M 415.49 184.46 C 416.96 179.47 415.93 174.19 416.45 169.08 C 417.18 174.70 418.21 180.48 417.15 186.12 C 414.50 193.34 406.20 194.89 400.18 198.22 C 399.80 199.40 399.44 200.59 399.10 201.79 C 399.63 203.61 399.33 205.47 398.76 207.24 C 398.29 207.15 397.37 206.97 396.91 206.88 C 395.18 206.10 393.79 204.80 392.48 203.48 C 394.09 201.97 395.89 200.40 395.96 198.01 C 399.49 196.44 403.12 195.13 406.67 193.61 C 410.74 191.99 413.82 188.43 415.49 184.46 Z" fill="#b8b3b4" opacity="1.00" stroke="#b8b3b4" stroke-width="0.25"/>
<path d="M 117.45 171.99 C 119.53 172.61 121.41 173.71 123.14 175.00 C 122.16 176.30 121.68 178.34 119.89 178.76 C 118.63 179.42 117.46 178.23 117.51 176.99 C 117.49 175.32 117.47 173.66 117.45 171.99 Z" fill="#b9919d" opacity="1.00" stroke="#b9919d" stroke-width="0.25"/>
<path d="M 374.39 174.56 C 377.44 173.17 381.59 173.22 383.73 176.15 C 385.49 178.82 387.05 181.70 388.00 184.76 C 387.94 185.25 387.80 186.21 387.73 186.70 C 383.85 184.67 379.28 183.93 375.83 181.14 C 373.70 179.60 374.38 176.79 374.39 174.56 Z" fill="#666f74" opacity="1.00" stroke="#666f74" stroke-width="0.25"/>
<path d="M 140.26 175.87 C 141.06 177.54 142.00 179.15 142.96 180.75 C 142.74 181.90 142.53 183.05 142.31 184.21 C 142.13 183.81 141.77 183.01 141.58 182.62 C 140.45 182.52 139.31 182.47 138.17 182.42 C 137.97 182.86 137.56 183.74 137.36 184.18 C 137.14 182.85 136.97 181.52 136.86 180.18 C 136.98 179.37 137.21 177.76 137.33 176.95 C 137.71 177.91 138.09 178.88 138.47 179.85 C 139.06 178.52 139.66 177.19 140.26 175.87 Z" fill="#b3aaaa" opacity="1.00" stroke="#b3aaaa" stroke-width="0.25"/>
<path d="M 396.23 181.41 C 396.78 181.44 397.87 181.48 398.41 181.50 C 399.16 182.36 399.92 183.23 400.68 184.10 C 400.34 185.31 400.03 186.52 399.73 187.75 C 399.08 187.78 397.79 187.84 397.14 187.86 C 396.85 186.21 396.57 184.56 396.39 182.90 C 396.35 182.53 396.27 181.79 396.23 181.41 Z" fill="#b27889" opacity="1.00" stroke="#b27889" stroke-width="0.25"/>
<path d="M 138.17 182.42 C 139.31 182.47 140.45 182.52 141.58 182.62 C 141.77 183.01 142.13 183.81 142.31 184.21 C 142.15 188.30 139.85 191.66 136.90 194.32 C 136.71 190.96 136.12 187.39 137.36 184.18 C 137.56 183.74 137.97 182.86 138.17 182.42 Z" fill="#e493a8" opacity="1.00" stroke="#e493a8" stroke-width="0.25"/>
<path d="M 315.39 185.08 C 316.82 184.03 318.73 181.52 320.52 183.50 C 322.40 186.88 316.65 188.17 315.39 185.08 Z" fill="#e38d87" opacity="1.00" stroke="#e38d87" stroke-width="0.25"/>
<path d="M 391.40 186.80 C 392.38 184.79 394.58 183.97 396.39 182.90 C 396.57 184.56 396.85 186.21 397.14 187.86 C 397.79 187.84 399.08 187.78 399.73 187.75 C 400.03 186.52 400.34 185.31 400.68 184.10 C 401.65 184.00 402.61 184.25 403.55 184.86 C 402.64 188.56 399.37 192.24 395.26 191.73 C 392.71 191.77 391.42 189.00 391.40 186.80 Z" fill="#eea2b5" opacity="1.00" stroke="#eea2b5" stroke-width="0.25"/>
<path d="M 197.35 184.54 C 198.59 184.51 199.92 184.36 201.07 185.01 C 205.60 187.24 210.20 189.55 213.95 193.00 C 213.52 193.60 213.09 194.22 212.68 194.85 C 207.92 190.93 201.33 189.59 197.35 184.54 Z" fill="#e1a08d" opacity="1.00" stroke="#e1a08d" stroke-width="0.25"/>
<path d="M 245.77 184.02 C 244.19 191.28 243.16 198.75 240.64 205.75 C 240.27 209.01 239.73 212.25 239.69 215.54 C 239.48 218.95 239.13 222.34 238.61 225.72 C 233.83 224.76 228.95 224.37 224.08 224.76 C 221.77 222.94 219.35 220.38 216.10 221.03 C 215.54 221.05 214.43 221.09 213.87 221.10 C 210.65 212.87 208.40 203.13 212.68 194.85 C 213.09 194.22 213.52 193.60 213.95 193.00 C 220.31 193.87 226.56 196.44 233.05 195.67 C 236.00 195.37 237.41 192.36 238.32 189.90 C 239.02 195.10 239.45 200.33 240.10 205.53 C 243.03 198.72 243.78 191.16 245.77 184.02 Z" fill="#48394c" opacity="1.00" stroke="#48394c" stroke-width="0.25"/>
<path d="M 365.53 184.93 C 365.70 188.92 366.62 192.82 368.46 196.38 C 370.44 202.74 372.75 209.21 372.50 215.98 C 372.34 222.23 372.92 228.46 373.33 234.69 C 377.06 231.24 379.51 226.59 383.66 223.58 L 383.75 225.23 C 380.06 229.26 376.44 233.35 372.61 237.24 C 368.15 231.92 363.47 226.12 362.53 219.01 C 362.54 218.49 362.55 217.45 362.55 216.92 C 359.38 212.38 354.90 209.02 350.47 205.82 C 348.16 201.61 346.82 196.96 344.97 192.54 C 343.13 194.51 341.52 196.78 339.14 198.14 C 340.72 195.40 342.76 192.97 344.67 190.47 C 347.57 189.69 350.57 189.29 353.58 189.33 C 355.91 192.60 360.21 193.94 361.72 197.86 C 361.58 193.20 362.25 188.47 365.53 184.93 Z" fill="#829896" opacity="1.00" stroke="#829896" stroke-width="0.25"/>
<path d="M 388.00 184.76 C 390.11 189.53 394.47 192.95 395.96 198.01 C 395.89 200.40 394.09 201.97 392.48 203.48 C 393.79 204.80 395.18 206.10 396.91 206.88 C 393.11 206.34 388.96 207.06 385.53 204.98 C 384.44 203.85 383.38 202.72 382.43 201.48 C 381.97 196.66 382.43 190.61 387.47 188.30 C 387.55 187.76 387.64 187.23 387.73 186.70 C 387.80 186.21 387.94 185.25 388.00 184.76 Z" fill="#839897" opacity="1.00" stroke="#839897" stroke-width="0.25"/>
<path d="M 95.42 190.99 C 96.29 189.61 96.63 186.83 98.88 187.38 C 102.94 187.84 106.98 186.56 111.01 187.12 C 112.67 187.15 113.20 188.88 113.77 190.14 C 115.52 194.87 115.15 200.03 115.18 204.98 C 112.00 204.49 108.70 204.10 105.85 202.48 C 103.96 201.28 102.28 199.75 100.78 198.10 C 98.82 195.86 97.16 193.39 95.42 190.99 Z" fill="#6a757c" opacity="1.00" stroke="#6a757c" stroke-width="0.25"/>
<path d="M 289.00 190.39 C 291.45 195.66 285.96 199.84 282.45 202.86 C 282.50 201.62 282.55 200.39 282.67 199.16 C 284.71 196.19 286.80 193.25 289.00 190.39 Z" fill="#cbafa9" opacity="1.00" stroke="#cbafa9" stroke-width="0.25"/>
<path d="M 76.92 197.91 C 80.02 197.27 81.63 193.28 85.01 193.56 C 86.93 194.65 86.37 197.17 86.50 199.00 C 86.58 205.62 82.58 211.16 79.05 216.40 C 71.32 216.21 63.94 211.67 59.75 205.26 C 57.16 201.77 59.28 196.52 62.93 194.73 C 67.87 193.66 72.36 196.58 76.92 197.91 Z" fill="#f6c1cd" opacity="1.00" stroke="#f6c1cd" stroke-width="0.25"/>
<path d="M 317.56 200.81 C 317.76 197.90 317.53 194.18 321.14 193.38 C 322.78 194.77 323.75 198.67 320.68 198.90 C 319.05 198.93 318.80 199.43 319.93 200.40 C 319.60 200.74 318.94 201.43 318.62 201.77 C 318.35 201.53 317.82 201.05 317.56 200.81 Z" fill="#ee8593" opacity="1.00" stroke="#ee8593" stroke-width="0.25"/>
<path d="M 429.67 195.82 C 431.58 195.38 433.57 195.62 435.52 195.57 C 438.08 197.98 438.15 201.58 438.39 204.84 C 441.42 203.47 444.68 202.04 448.08 202.63 C 450.31 203.44 452.60 205.39 452.45 207.97 C 452.52 214.75 448.58 221.52 442.59 224.74 C 437.24 228.06 431.19 229.97 425.22 231.82 C 423.37 223.13 420.31 214.17 422.20 205.23 C 422.93 201.05 425.91 197.63 429.67 195.82 Z" fill="#eb6681" opacity="1.00" stroke="#eb6681" stroke-width="0.25"/>
<path d="M 117.45 197.51 C 117.61 197.49 117.93 197.44 118.09 197.42 C 118.61 200.23 119.07 203.11 120.36 205.70 C 121.97 207.54 124.37 208.43 126.39 209.74 C 127.11 206.60 126.94 202.31 130.42 200.79 C 130.13 204.25 128.88 207.53 128.55 210.97 C 128.59 215.16 129.02 219.37 130.07 223.43 C 123.22 224.53 117.03 229.45 109.86 227.74 C 106.59 227.48 103.78 225.69 101.44 223.51 C 101.47 221.19 100.67 218.40 102.48 216.52 C 103.61 215.47 105.02 214.78 106.30 213.95 C 106.80 215.85 107.29 217.76 107.75 219.67 C 114.14 218.46 119.45 214.00 125.98 213.14 C 124.39 211.34 122.43 209.90 120.94 208.04 C 119.35 204.69 118.44 201.07 117.45 197.51 Z" fill="#6a777e" opacity="1.00" stroke="#6a777e" stroke-width="0.25"/>
<path d="M 100.78 198.10 C 102.28 199.75 103.96 201.28 105.85 202.48 C 101.94 204.28 103.07 210.71 98.96 212.66 C 96.39 211.99 93.82 210.95 91.76 209.24 C 89.49 207.47 89.40 203.49 91.69 201.71 C 94.18 199.38 97.93 199.82 100.78 198.10 Z" fill="#f6bdcc" opacity="1.00" stroke="#f6bdcc" stroke-width="0.25"/>
<path d="M 319.93 200.40 C 318.80 199.43 319.05 198.93 320.68 198.90 C 320.49 199.28 320.11 200.03 319.93 200.40 Z" fill="#c56f6c" opacity="1.00" stroke="#c56f6c" stroke-width="0.25"/>
<path d="M 374.05 202.07 C 376.76 201.21 379.62 201.31 382.43 201.48 C 383.38 202.72 384.44 203.85 385.53 204.98 C 383.37 205.82 380.48 205.98 379.30 208.29 C 377.98 210.53 378.83 213.21 379.22 215.59 L 378.44 215.78 C 377.64 210.99 374.58 206.93 374.05 202.07 Z" fill="#f1d0da" opacity="1.00" stroke="#f1d0da" stroke-width="0.25"/>
<path d="M 134.30 222.38 C 140.31 210.39 154.28 205.31 166.92 204.61 C 172.21 206.54 177.52 208.60 182.18 211.81 C 188.36 215.94 193.64 221.62 200.75 224.19 C 206.12 226.01 211.24 222.90 216.10 221.03 C 219.35 220.38 221.77 222.94 224.08 224.76 C 228.95 224.37 233.83 224.76 238.61 225.72 C 239.13 222.34 239.48 218.95 239.69 215.54 C 241.37 219.11 242.54 222.90 243.52 226.72 C 247.65 227.25 251.73 228.30 255.38 230.35 C 255.52 231.26 255.66 232.18 255.81 233.10 C 258.19 234.65 260.91 236.29 261.81 239.17 C 262.56 242.02 262.42 245.02 262.19 247.93 C 258.78 253.13 257.47 259.77 252.58 263.90 C 253.08 265.37 253.59 266.83 254.03 268.32 C 253.13 273.27 249.69 277.20 247.33 281.51 C 239.85 292.77 232.13 303.94 225.99 316.02 C 225.12 315.81 224.24 315.61 223.37 315.41 C 223.45 316.94 223.96 318.60 223.11 320.02 C 221.13 324.26 218.78 328.34 215.96 332.08 C 212.37 327.40 209.71 322.09 206.88 316.93 C 205.86 315.53 207.14 314.07 207.57 312.72 C 206.51 312.67 205.44 312.62 204.39 312.57 C 200.27 304.21 196.57 295.64 192.35 287.33 C 193.48 286.99 194.61 286.66 195.75 286.32 C 195.47 285.69 195.19 285.06 194.92 284.44 C 193.86 285.03 192.81 285.62 191.75 286.18 C 189.12 279.37 185.53 272.99 182.94 266.15 C 177.61 255.13 170.56 243.45 158.77 238.51 C 149.15 234.20 137.43 233.77 128.02 238.86 C 125.23 240.31 122.48 241.87 119.68 243.30 C 120.54 240.20 121.47 237.12 122.59 234.11 C 126.31 231.27 128.11 226.65 131.77 223.85 C 132.61 223.35 133.45 222.86 134.30 222.38 Z" fill="#fbfafa" opacity="1.00" stroke="#fbfafa" stroke-width="0.25"/>
<path d="M 321.92 207.01 C 327.47 205.11 333.44 204.19 339.30 204.70 C 342.98 205.42 346.74 205.45 350.47 205.82 C 354.90 209.02 359.38 212.38 362.55 216.92 C 362.55 217.45 362.54 218.49 362.53 219.01 C 356.06 221.11 349.60 223.29 342.98 224.84 C 333.91 227.03 324.58 230.46 315.17 228.22 C 310.70 234.49 305.60 240.44 299.20 244.82 C 298.73 244.81 297.80 244.80 297.34 244.79 C 304.29 237.09 307.27 226.91 313.03 218.42 C 315.70 214.46 317.56 209.43 321.92 207.01 Z" fill="#fbfbfb" opacity="1.00" stroke="#fbfbfb" stroke-width="0.25"/>
<path d="M 385.53 204.98 C 388.96 207.06 393.11 206.34 396.91 206.88 C 397.37 206.97 398.29 207.15 398.76 207.24 L 399.65 207.41 C 400.73 211.19 400.27 215.25 397.97 218.51 C 395.96 219.84 393.92 221.16 391.73 222.19 C 390.74 222.63 389.75 223.03 388.77 223.48 C 387.80 225.55 385.67 225.42 383.75 225.23 L 383.66 223.58 C 383.62 223.06 383.52 222.03 383.48 221.51 C 381.74 219.79 380.08 217.91 379.22 215.59 C 378.83 213.21 377.98 210.53 379.30 208.29 C 380.48 205.98 383.37 205.82 385.53 204.98 Z" fill="#e999ad" opacity="1.00" stroke="#e999ad" stroke-width="0.25"/>
<path d="M 414.56 208.27 C 414.82 208.27 415.34 208.27 415.60 208.27 C 415.01 215.32 413.15 222.73 408.26 228.07 C 411.30 221.85 414.69 215.40 414.56 208.27 Z" fill="#6a7075" opacity="1.00" stroke="#6a7075" stroke-width="0.25"/>
<path d="M 156.24 214.19 C 158.29 213.41 158.57 216.69 156.76 217.09 C 154.67 217.94 154.42 214.57 156.24 214.19 Z" fill="#c8aeb6" opacity="1.00" stroke="#c8aeb6" stroke-width="0.25"/>
<path d="M 147.41 217.24 C 148.78 215.69 151.04 218.17 149.52 219.48 C 148.18 220.88 146.12 218.52 147.41 217.24 Z" fill="#dcd2d3" opacity="1.00" stroke="#dcd2d3" stroke-width="0.25"/>
<path d="M 397.97 218.51 C 400.41 217.81 404.19 217.78 404.60 221.02 C 406.77 229.90 399.18 236.92 397.38 245.14 C 394.66 248.73 391.71 252.16 389.34 256.00 C 387.58 253.33 385.73 250.71 383.63 248.30 C 384.73 239.68 386.07 230.50 391.08 223.19 L 391.56 226.05 C 391.62 224.76 391.67 223.47 391.73 222.19 C 393.92 221.16 395.96 219.84 397.97 218.51 Z" fill="#7a8e90" opacity="1.00" stroke="#7a8e90" stroke-width="0.25"/>
<path d="M 342.98 224.84 C 349.60 223.29 356.06 221.11 362.53 219.01 C 363.47 226.12 368.15 231.92 372.61 237.24 C 376.15 241.06 380.09 244.48 383.63 248.30 C 385.73 250.71 387.58 253.33 389.34 256.00 C 391.81 259.80 393.49 264.05 394.98 268.32 C 395.50 271.27 396.14 274.19 396.76 277.13 C 398.55 286.34 397.62 295.82 396.03 304.99 C 394.24 317.83 391.44 330.52 390.81 343.50 C 390.43 344.82 389.97 346.11 389.54 347.42 C 390.72 347.43 391.90 347.44 393.09 347.45 C 391.74 349.34 389.91 350.93 388.90 353.04 C 387.25 367.17 384.25 381.24 384.51 395.53 C 384.06 404.61 384.57 413.70 384.34 422.80 C 384.20 437.73 382.97 452.63 381.30 467.47 C 381.76 467.87 382.66 468.68 383.11 469.08 C 380.43 469.49 377.75 470.03 375.03 470.11 C 354.84 470.38 334.61 470.58 314.44 469.34 C 302.35 467.64 290.15 467.03 278.00 465.90 C 273.71 465.64 269.38 465.63 265.18 464.60 C 259.81 463.33 254.21 463.04 249.00 461.15 C 249.78 461.01 251.33 460.72 252.11 460.58 C 248.88 456.37 246.42 451.65 244.59 446.69 C 252.12 445.01 260.08 445.21 267.32 442.24 C 273.22 439.91 277.90 435.42 283.57 432.66 C 291.57 428.72 299.51 424.23 305.53 417.51 C 311.27 412.05 315.07 405.06 319.75 398.77 C 329.06 385.01 338.64 371.42 347.11 357.12 C 351.10 349.85 355.48 342.81 359.75 335.70 C 362.50 331.05 366.37 326.63 366.75 321.00 C 367.81 307.15 368.89 292.93 365.48 279.31 C 363.81 272.14 358.44 266.33 352.05 262.98 C 339.81 257.58 324.40 257.01 313.26 265.27 C 307.54 268.84 304.46 274.97 301.14 280.58 C 301.53 278.39 301.96 276.21 302.50 274.05 C 302.27 273.84 301.80 273.42 301.56 273.21 C 300.87 274.89 300.18 276.57 299.47 278.25 C 298.82 276.73 298.13 275.23 297.42 273.74 C 297.08 273.61 296.42 273.35 296.08 273.21 C 295.96 270.88 295.84 268.54 295.72 266.20 C 293.45 266.01 291.05 265.07 288.80 265.75 C 287.56 267.24 286.57 268.90 285.45 270.48 C 285.51 268.46 286.05 266.51 286.78 264.64 C 286.41 264.39 285.67 263.88 285.30 263.62 C 285.28 260.74 284.85 257.80 282.87 255.56 C 288.40 252.12 294.19 249.04 299.20 244.82 C 305.60 240.44 310.70 234.49 315.17 228.22 C 324.58 230.46 333.91 227.03 342.98 224.84 Z" fill="#eb96ae" opacity="1.00" stroke="#eb96ae" stroke-width="0.25"/>
<path d="M 140.37 221.28 C 141.70 219.68 144.06 222.05 142.44 223.37 C 141.13 224.88 138.95 222.58 140.37 221.28 Z" fill="#ded3d7" opacity="1.00" stroke="#ded3d7" stroke-width="0.25"/>
<path d="M 163.23 221.29 C 164.70 220.11 166.30 222.68 164.86 223.68 C 163.39 224.85 161.79 222.28 163.23 221.29 Z" fill="#cfc5c8" opacity="1.00" stroke="#cfc5c8" stroke-width="0.25"/>
<path d="M 388.77 223.48 C 389.75 223.03 390.74 222.63 391.73 222.19 C 391.67 223.47 391.62 224.76 391.56 226.05 L 391.08 223.19 C 386.07 230.50 384.73 239.68 383.63 248.30 C 380.09 244.48 376.15 241.06 372.61 237.24 C 376.44 233.35 380.06 229.26 383.75 225.23 C 385.67 225.42 387.80 225.55 388.77 223.48 Z" fill="#eae6ea" opacity="1.00" stroke="#eae6ea" stroke-width="0.25"/>
<path d="M 67.14 231.22 C 70.64 228.30 73.98 224.16 78.99 224.28 C 83.53 223.63 87.14 227.17 89.21 230.80 C 89.90 232.31 91.56 232.72 92.95 233.30 C 96.34 234.39 97.70 238.20 100.85 239.75 C 101.08 241.78 101.23 243.83 101.05 245.87 C 99.79 249.14 97.73 252.00 95.50 254.67 C 89.75 255.10 86.10 249.86 81.21 248.10 C 79.07 253.06 77.38 258.22 74.61 262.90 C 70.81 262.10 67.69 259.69 64.42 257.75 C 58.16 253.81 51.98 248.87 49.02 241.88 C 47.17 237.60 47.15 232.10 50.44 228.50 C 52.28 226.33 55.33 225.95 58.00 226.15 C 61.70 226.27 64.34 229.20 67.14 231.22 Z" fill="#e9879e" opacity="1.00" stroke="#e9879e" stroke-width="0.25"/>
<path d="M 154.59 224.41 C 155.05 224.43 155.96 224.46 156.42 224.47 C 156.42 224.97 156.42 225.97 156.41 226.47 C 155.99 226.47 155.14 226.48 154.71 226.49 C 154.68 225.97 154.62 224.93 154.59 224.41 Z" fill="#915d61" opacity="1.00" stroke="#915d61" stroke-width="0.25"/>
<path d="M 133.12 225.14 C 136.56 224.89 133.05 229.31 132.25 226.16 C 132.46 225.91 132.90 225.40 133.12 225.14 Z" fill="#e2d5d7" opacity="1.00" stroke="#e2d5d7" stroke-width="0.25"/>
<path d="M 146.11 224.96 C 147.76 224.48 148.30 225.05 147.74 226.66 C 146.09 227.14 145.55 226.57 146.11 224.96 Z" fill="#d7bfc7" opacity="1.00" stroke="#d7bfc7" stroke-width="0.25"/>
<path d="M 409.40 231.32 C 411.74 229.45 413.96 227.46 416.28 225.56 C 415.11 228.99 411.87 230.98 409.74 233.73 C 402.45 241.69 396.78 251.32 394.66 261.98 C 394.56 263.50 394.61 265.03 394.80 266.55 C 394.85 266.99 394.94 267.87 394.98 268.32 C 393.49 264.05 391.81 259.80 389.34 256.00 C 391.71 252.16 394.66 248.73 397.38 245.14 C 401.21 240.40 404.62 235.20 409.40 231.32 Z" fill="#6d7a81" opacity="1.00" stroke="#6d7a81" stroke-width="0.25"/>
<path d="M 170.18 228.23 C 171.90 227.66 172.68 230.62 170.92 231.01 C 169.21 231.49 168.46 228.66 170.18 228.23 Z" fill="#dac9cf" opacity="1.00" stroke="#dac9cf" stroke-width="0.25"/>
<path d="M 159.43 229.34 C 160.69 227.98 162.83 230.21 161.35 231.37 C 160.08 232.66 158.07 230.54 159.43 229.34 Z" fill="#cfbbc1" opacity="1.00" stroke="#cfbbc1" stroke-width="0.25"/>
<path d="M 138.34 230.17 C 139.95 229.68 140.48 230.26 139.91 231.90 C 138.28 232.38 137.76 231.80 138.34 230.17 Z" fill="#d3c3c6" opacity="1.00" stroke="#d3c3c6" stroke-width="0.25"/>
<path d="M 224.98 230.18 C 226.58 229.61 227.14 230.15 226.67 231.80 C 225.07 232.37 224.50 231.83 224.98 230.18 Z" fill="#daccd1" opacity="1.00" stroke="#daccd1" stroke-width="0.25"/>
<path d="M 234.04 230.24 C 235.66 229.74 236.21 230.30 235.70 231.93 C 234.07 232.43 233.52 231.87 234.04 230.24 Z" fill="#cab8be" opacity="1.00" stroke="#cab8be" stroke-width="0.25"/>
<path d="M 245.13 230.36 C 248.47 230.55 243.52 233.31 245.13 230.36 Z" fill="#ba9fa9" opacity="1.00" stroke="#ba9fa9" stroke-width="0.25"/>
<path d="M 145.31 231.16 C 146.29 229.72 148.89 231.30 147.71 232.78 C 146.71 234.20 144.12 232.63 145.31 231.16 Z" fill="#e0d4d8" opacity="1.00" stroke="#e0d4d8" stroke-width="0.25"/>
<path d="M 100.85 239.75 C 105.08 231.98 114.99 230.18 122.98 232.08 C 122.88 232.59 122.69 233.60 122.59 234.11 C 121.47 237.12 120.54 240.20 119.68 243.30 L 119.53 243.38 C 117.72 243.86 115.83 243.78 113.98 243.86 C 109.58 243.89 105.39 245.43 101.05 245.87 C 101.23 243.83 101.08 241.78 100.85 239.75 Z" fill="#677379" opacity="1.00" stroke="#677379" stroke-width="0.25"/>
<path d="M 130.30 232.31 C 131.81 231.12 133.25 233.81 131.85 234.78 C 130.34 235.96 128.90 233.26 130.30 232.31 Z" fill="#ddd2d4" opacity="1.00" stroke="#ddd2d4" stroke-width="0.25"/>
<path d="M 125.33 234.35 C 126.64 233.32 128.21 235.60 126.92 236.55 C 125.61 237.54 124.07 235.30 125.33 234.35 Z" fill="#dfcdce" opacity="1.00" stroke="#dfcdce" stroke-width="0.25"/>
<path d="M 176.05 234.43 C 177.45 234.04 177.92 234.55 177.45 235.94 C 176.03 236.32 175.57 235.82 176.05 234.43 Z" fill="#cac8c9" opacity="1.00" stroke="#cac8c9" stroke-width="0.25"/>
<path d="M 240.21 234.36 C 241.85 233.82 242.40 234.36 241.86 235.98 C 240.21 236.52 239.66 235.98 240.21 234.36 Z" fill="#cdb9bf" opacity="1.00" stroke="#cdb9bf" stroke-width="0.25"/>
<path d="M 128.02 238.86 C 137.43 233.77 149.15 234.20 158.77 238.51 C 170.56 243.45 177.61 255.13 182.94 266.15 C 185.53 272.99 189.12 279.37 191.75 286.18 C 192.81 285.62 193.86 285.03 194.92 284.44 C 195.19 285.06 195.47 285.69 195.75 286.32 C 194.61 286.66 193.48 286.99 192.35 287.33 C 196.57 295.64 200.27 304.21 204.39 312.57 C 205.44 312.62 206.51 312.67 207.57 312.72 C 207.14 314.07 205.86 315.53 206.88 316.93 C 209.71 322.09 212.37 327.40 215.96 332.08 C 218.78 328.34 221.13 324.26 223.11 320.02 C 223.96 318.60 223.45 316.94 223.37 315.41 C 224.24 315.61 225.12 315.81 225.99 316.02 C 232.13 303.94 239.85 292.77 247.33 281.51 C 249.69 277.20 253.13 273.27 254.03 268.32 C 254.19 267.55 254.49 266.00 254.65 265.23 C 263.94 266.77 272.29 271.47 281.37 273.77 C 282.50 270.32 283.87 266.96 285.30 263.62 C 285.67 263.88 286.41 264.39 286.78 264.64 C 286.05 266.51 285.51 268.46 285.45 270.48 C 286.57 268.90 287.56 267.24 288.80 265.75 C 291.05 265.07 293.45 266.01 295.72 266.20 C 295.84 268.54 295.96 270.88 296.08 273.21 C 296.42 273.35 297.08 273.61 297.42 273.74 C 298.13 275.23 298.82 276.73 299.47 278.25 C 300.18 276.57 300.87 274.89 301.56 273.21 C 301.80 273.42 302.27 273.84 302.50 274.05 C 301.96 276.21 301.53 278.39 301.14 280.58 C 294.52 299.06 283.49 315.47 275.11 333.13 C 275.81 322.96 279.34 313.16 284.14 304.23 C 286.77 299.53 288.30 294.22 287.86 288.81 C 282.28 293.76 280.71 301.31 277.92 307.90 C 274.90 315.12 272.37 322.52 269.81 329.91 C 267.30 337.01 265.93 344.52 262.43 351.25 C 260.06 355.89 257.61 360.50 254.74 364.84 C 247.30 374.88 239.83 385.02 230.51 393.42 C 229.04 394.27 227.35 394.64 225.72 395.07 C 218.84 395.08 211.61 394.85 205.48 391.32 C 198.11 387.02 191.87 381.08 186.00 374.95 C 181.69 370.27 177.03 365.91 172.86 361.08 C 165.36 351.85 157.19 343.08 151.20 332.73 C 148.26 327.44 144.03 323.00 141.26 317.61 C 140.14 315.43 138.78 313.39 137.26 311.48 C 137.01 315.22 136.70 319.17 138.29 322.68 C 140.71 328.51 145.60 332.69 149.59 337.40 C 155.72 345.12 162.19 352.58 169.01 359.70 C 167.92 360.16 166.82 360.62 165.72 361.06 C 162.56 361.32 159.39 361.45 156.24 361.70 C 155.42 359.89 155.54 356.78 153.13 356.34 C 151.64 357.03 150.28 357.98 148.79 358.68 C 146.23 357.97 143.91 356.59 141.39 355.79 C 140.75 358.66 139.79 361.44 138.65 364.15 C 133.96 363.83 129.06 364.26 124.61 362.44 C 120.61 360.90 117.34 358.06 113.78 355.76 C 114.53 358.33 115.60 360.81 117.09 363.05 C 116.68 365.38 115.97 367.65 114.86 369.75 C 114.31 368.37 113.71 367.02 113.18 365.64 C 112.16 357.85 110.86 350.07 108.46 342.57 C 107.93 342.51 106.88 342.39 106.35 342.33 C 105.75 342.30 104.55 342.25 103.95 342.22 C 106.65 340.76 109.73 339.95 112.18 338.09 C 115.22 334.80 117.69 330.83 118.80 326.46 C 120.70 319.43 113.04 311.82 106.04 313.96 C 103.19 314.82 100.30 315.53 97.34 315.84 C 97.41 315.52 97.55 314.88 97.62 314.56 C 99.80 302.99 104.54 292.06 106.36 280.40 C 106.58 279.37 106.81 278.34 107.05 277.33 C 109.02 267.92 111.63 258.57 115.85 249.90 C 116.88 247.61 118.80 245.80 119.53 243.38 L 119.68 243.30 C 122.48 241.87 125.23 240.31 128.02 238.86 Z" fill="#e78ca4" opacity="1.00" stroke="#e78ca4" stroke-width="0.25"/>
<path d="M 217.33 235.26 C 218.29 233.84 220.97 235.31 219.78 236.82 C 218.81 238.22 216.15 236.76 217.33 235.26 Z" fill="#d2cecf" opacity="1.00" stroke="#d2cecf" stroke-width="0.25"/>
<path d="M 231.12 235.36 C 234.45 235.34 229.74 238.42 231.12 235.36 Z" fill="#b9b3b6" opacity="1.00" stroke="#b9b3b6" stroke-width="0.25"/>
<path d="M 164.12 235.99 C 165.73 235.46 166.27 236.03 165.75 237.69 C 164.14 238.21 163.60 237.64 164.12 235.99 Z" fill="#c5b2b8" opacity="1.00" stroke="#c5b2b8" stroke-width="0.25"/>
<path d="M 249.36 236.34 C 250.66 234.82 252.96 237.00 251.53 238.38 C 250.28 239.99 247.86 237.68 249.36 236.34 Z" fill="#dbc9cf" opacity="1.00" stroke="#dbc9cf" stroke-width="0.25"/>
<path d="M 171.37 237.20 C 172.99 236.68 173.55 237.24 173.06 238.88 C 171.43 239.39 170.87 238.83 171.37 237.20 Z" fill="#cfbbc1" opacity="1.00" stroke="#cfbbc1" stroke-width="0.25"/>
<path d="M 235.08 237.19 C 236.71 236.62 237.26 237.15 236.73 238.78 C 235.09 239.35 234.54 238.83 235.08 237.19 Z" fill="#ccbcbf" opacity="1.00" stroke="#ccbcbf" stroke-width="0.25"/>
<path d="M 436.50 244.31 C 438.39 240.43 442.66 237.48 447.11 238.30 C 449.84 238.32 451.43 241.10 453.97 241.60 C 457.15 241.21 459.76 238.88 462.99 238.58 C 466.80 237.82 471.04 239.71 472.73 243.27 C 475.15 247.45 474.68 252.64 472.97 256.99 C 470.41 263.26 466.43 268.87 461.96 273.92 C 460.81 275.49 458.90 275.92 457.16 276.44 C 456.87 277.27 456.59 278.11 456.32 278.95 C 456.30 278.19 456.28 276.66 456.26 275.90 C 447.97 271.54 440.45 264.79 437.03 255.89 C 435.78 252.22 434.74 248.00 436.50 244.31 Z" fill="#e8889f" opacity="1.00" stroke="#e8889f" stroke-width="0.25"/>
<path d="M 223.16 239.12 C 224.78 238.56 225.33 239.10 224.83 240.75 C 223.22 241.30 222.66 240.76 223.16 239.12 Z" fill="#d9cfd2" opacity="1.00" stroke="#d9cfd2" stroke-width="0.25"/>
<path d="M 244.16 239.27 C 245.69 238.11 247.12 240.79 245.67 241.73 C 244.15 242.88 242.70 240.20 244.16 239.27 Z" fill="#d4c7cc" opacity="1.00" stroke="#d4c7cc" stroke-width="0.25"/>
<path d="M 181.29 240.30 C 182.92 239.72 183.49 240.24 183.00 241.87 C 181.37 242.45 180.79 241.93 181.29 240.30 Z" fill="#c9afb8" opacity="1.00" stroke="#c9afb8" stroke-width="0.25"/>
<path d="M 238.51 242.07 C 239.91 241.64 240.39 242.14 239.95 243.55 C 238.55 243.96 238.07 243.47 238.51 242.07 Z" fill="#d3c8cc" opacity="1.00" stroke="#d3c8cc" stroke-width="0.25"/>
<path d="M 409.43 249.24 C 413.73 244.42 420.15 241.82 426.49 241.26 C 427.27 245.88 427.19 252.85 421.68 254.42 C 419.84 254.95 417.98 255.41 416.16 255.99 C 414.72 256.51 413.32 257.12 411.93 257.75 C 412.89 255.79 414.09 253.94 414.96 251.93 C 413.37 250.59 411.30 250.06 409.43 249.24 Z" fill="#829796" opacity="1.00" stroke="#829796" stroke-width="0.25"/>
<path d="M 177.14 243.41 C 178.45 242.34 179.92 244.67 178.73 245.63 C 177.41 246.70 175.94 244.37 177.14 243.41 Z" fill="#d7c9ce" opacity="1.00" stroke="#d7c9ce" stroke-width="0.25"/>
<path d="M 192.20 243.14 C 193.52 243.72 193.53 244.40 192.23 245.18 C 190.91 244.60 190.90 243.92 192.20 243.14 Z" fill="#d8d1d3" opacity="1.00" stroke="#d8d1d3" stroke-width="0.25"/>
<path d="M 216.30 243.26 C 217.94 242.75 218.47 243.30 217.91 244.92 C 216.26 245.43 215.72 244.88 216.30 243.26 Z" fill="#beb0b5" opacity="1.00" stroke="#beb0b5" stroke-width="0.25"/>
<path d="M 228.20 243.21 C 229.89 242.64 230.86 245.59 229.00 245.93 C 227.31 246.40 226.43 243.64 228.20 243.21 Z" fill="#cfc5c9" opacity="1.00" stroke="#cfc5c9" stroke-width="0.25"/>
<path d="M 256.22 243.20 C 257.86 242.67 258.42 243.22 257.93 244.84 C 256.29 245.36 255.72 244.82 256.22 243.20 Z" fill="#ccc4c9" opacity="1.00" stroke="#ccc4c9" stroke-width="0.25"/>
<path d="M 250.15 244.30 C 251.75 243.84 252.33 246.37 251.12 247.21 C 249.85 249.20 248.25 244.77 250.15 244.30 Z" fill="#e5dcdf" opacity="1.00" stroke="#e5dcdf" stroke-width="0.25"/>
<path d="M 186.40 245.31 C 187.73 243.83 190.07 246.11 188.53 247.44 C 187.21 248.89 184.92 246.62 186.40 245.31 Z" fill="#d5bfc6" opacity="1.00" stroke="#d5bfc6" stroke-width="0.25"/>
<path d="M 263.11 245.09 C 264.89 248.81 269.24 249.52 272.49 251.43 C 275.74 253.28 279.13 255.00 282.87 255.56 C 284.85 257.80 285.28 260.74 285.30 263.62 C 283.87 266.96 282.50 270.32 281.37 273.77 C 272.29 271.47 263.94 266.77 254.65 265.23 C 254.49 266.00 254.19 267.55 254.03 268.32 C 253.59 266.83 253.08 265.37 252.58 263.90 C 257.47 259.77 258.78 253.13 262.19 247.93 C 262.54 246.99 262.84 246.05 263.11 245.09 Z" fill="#f3b6c7" opacity="1.00" stroke="#f3b6c7" stroke-width="0.25"/>
<path d="M 197.45 247.17 C 198.33 245.86 200.73 247.25 199.74 248.63 C 198.85 249.90 196.50 248.53 197.45 247.17 Z" fill="#d2c7cb" opacity="1.00" stroke="#d2c7cb" stroke-width="0.25"/>
<path d="M 208.01 247.22 C 209.61 246.64 210.17 247.18 209.68 248.84 C 208.08 249.42 207.52 248.88 208.01 247.22 Z" fill="#d7cace" opacity="1.00" stroke="#d7cace" stroke-width="0.25"/>
<path d="M 179.44 248.19 C 180.83 246.59 183.10 249.16 181.49 250.44 C 180.14 251.79 178.15 249.44 179.44 248.19 Z" fill="#dfc9d0" opacity="1.00" stroke="#dfc9d0" stroke-width="0.25"/>
<path d="M 222.02 248.21 C 223.61 247.78 224.75 250.56 222.94 250.99 C 221.29 251.46 220.21 248.66 222.02 248.21 Z" fill="#d8cbd0" opacity="1.00" stroke="#d8cbd0" stroke-width="0.25"/>
<path d="M 231.08 248.27 C 234.41 248.29 229.65 251.31 231.08 248.27 Z" fill="#c8c1c3" opacity="1.00" stroke="#c8c1c3" stroke-width="0.25"/>
<path d="M 192.13 249.32 C 193.71 248.87 194.36 251.44 192.79 251.85 C 191.20 252.38 190.54 249.66 192.13 249.32 Z" fill="#d9cbd0" opacity="1.00" stroke="#d9cbd0" stroke-width="0.25"/>
<path d="M 403.49 257.76 C 403.86 253.94 406.02 250.91 409.43 249.24 C 411.30 250.06 413.37 250.59 414.96 251.93 C 414.09 253.94 412.89 255.79 411.93 257.75 C 411.73 259.42 411.64 261.09 411.55 262.77 C 411.86 262.64 412.47 262.38 412.78 262.24 C 413.82 260.11 414.96 258.04 416.16 255.99 C 417.98 255.41 419.84 254.95 421.68 254.42 C 422.84 257.49 424.40 260.39 425.51 263.48 C 425.36 265.85 424.37 268.16 423.21 270.21 C 420.39 273.13 416.21 274.07 413.10 276.63 L 412.72 276.12 L 412.26 275.53 C 410.88 275.99 409.63 276.78 408.52 277.71 C 404.50 275.89 400.81 273.46 396.88 271.47 C 396.81 273.35 396.73 275.24 396.76 277.13 C 396.14 274.19 395.50 271.27 394.98 268.32 C 394.94 267.87 394.85 266.99 394.80 266.55 C 396.64 264.40 396.87 260.89 399.66 259.67 C 400.91 258.98 402.20 258.38 403.49 257.76 Z" fill="#f5c1cc" opacity="1.00" stroke="#f5c1cc" stroke-width="0.25"/>
<path d="M 202.45 252.09 C 203.35 250.80 205.75 252.21 204.71 253.57 C 203.80 254.83 201.45 253.44 202.45 252.09 Z" fill="#d1c7cb" opacity="1.00" stroke="#d1c7cb" stroke-width="0.25"/>
<path d="M 215.22 252.26 C 216.85 251.73 217.39 252.27 216.84 253.90 C 215.19 254.43 214.65 253.88 215.22 252.26 Z" fill="#d3c8cc" opacity="1.00" stroke="#d3c8cc" stroke-width="0.25"/>
<path d="M 185.28 255.78 C 185.87 255.73 187.05 255.62 187.63 255.57 C 187.58 256.16 187.47 257.35 187.42 257.94 C 186.72 257.20 186.01 256.48 185.28 255.78 Z" fill="#915d61" opacity="1.00" stroke="#915d61" stroke-width="0.25"/>
<path d="M 86.36 255.42 C 89.82 255.62 93.90 255.68 96.31 258.59 C 100.87 264.19 105.34 270.17 107.05 277.33 C 106.81 278.34 106.58 279.37 106.36 280.40 C 105.32 276.27 103.82 272.29 102.53 268.24 C 94.75 269.84 85.77 263.85 86.36 255.42 Z" fill="#829494" opacity="1.00" stroke="#829494" stroke-width="0.25"/>
<path d="M 197.30 256.27 C 198.93 255.73 199.46 256.28 198.90 257.92 C 197.27 258.46 196.74 257.91 197.30 256.27 Z" fill="#d0b6bf" opacity="1.00" stroke="#d0b6bf" stroke-width="0.25"/>
<path d="M 208.17 256.23 C 209.79 255.66 210.52 258.37 208.83 258.70 C 207.27 259.19 206.59 256.60 208.17 256.23 Z" fill="#d8c4cb" opacity="1.00" stroke="#d8c4cb" stroke-width="0.25"/>
<path d="M 224.39 256.30 C 225.67 255.03 227.77 257.23 226.42 258.44 C 225.17 259.62 223.17 257.49 224.39 256.30 Z" fill="#d6c2c9" opacity="1.00" stroke="#d6c2c9" stroke-width="0.25"/>
<path d="M 252.21 256.28 C 253.69 255.09 255.28 257.70 253.82 258.69 C 252.34 259.83 250.77 257.27 252.21 256.28 Z" fill="#d2bec2" opacity="1.00" stroke="#d2bec2" stroke-width="0.25"/>
<path d="M 411.93 257.75 C 413.32 257.12 414.72 256.51 416.16 255.99 C 414.96 258.04 413.82 260.11 412.78 262.24 C 412.47 262.38 411.86 262.64 411.55 262.77 C 411.64 261.09 411.73 259.42 411.93 257.75 Z" fill="#514a59" opacity="1.00" stroke="#514a59" stroke-width="0.25"/>
<path d="M 242.62 256.89 C 243.95 258.70 245.32 260.58 245.75 262.83 C 244.96 263.90 244.04 264.86 243.16 265.85 C 242.22 262.96 242.60 259.88 242.62 256.89 Z" fill="#d09db0" opacity="1.00" stroke="#d09db0" stroke-width="0.25"/>
<path d="M 313.26 265.27 C 324.40 257.01 339.81 257.58 352.05 262.98 C 358.44 266.33 363.81 272.14 365.48 279.31 C 368.89 292.93 367.81 307.15 366.75 321.00 C 366.37 326.63 362.50 331.05 359.75 335.70 C 355.48 342.81 351.10 349.85 347.11 357.12 C 338.64 371.42 329.06 385.01 319.75 398.77 C 315.07 405.06 311.27 412.05 305.53 417.51 C 299.51 424.23 291.57 428.72 283.57 432.66 C 277.90 435.42 273.22 439.91 267.32 442.24 C 260.08 445.21 252.12 445.01 244.59 446.69 C 246.42 451.65 248.88 456.37 252.11 460.58 C 251.33 460.72 249.78 461.01 249.00 461.15 C 247.82 460.61 246.64 460.06 245.48 459.50 C 244.92 462.37 244.70 465.30 245.03 468.21 C 244.18 465.19 243.85 462.07 243.83 458.94 C 242.36 458.21 240.24 458.10 239.57 456.37 C 239.07 453.33 239.71 450.26 239.89 447.22 C 226.10 446.44 211.74 443.96 200.29 435.73 C 196.75 433.33 194.41 429.48 190.65 427.40 C 186.79 426.57 182.59 427.98 178.92 426.09 C 183.12 426.03 188.39 427.06 191.68 423.80 C 192.17 419.86 193.11 416.00 193.83 412.10 C 193.60 407.79 192.90 403.45 191.62 399.33 C 185.58 393.95 177.00 393.86 169.49 392.21 C 164.32 390.64 162.61 384.98 160.64 380.55 C 158.56 375.13 154.35 370.73 152.90 365.05 C 153.17 363.29 154.82 362.43 156.24 361.70 C 159.39 361.45 162.56 361.32 165.72 361.06 C 168.10 361.01 170.48 361.05 172.86 361.08 C 177.03 365.91 181.69 370.27 186.00 374.95 C 191.87 381.08 198.11 387.02 205.48 391.32 C 211.61 394.85 218.84 395.08 225.72 395.07 C 232.07 395.44 238.29 393.95 244.43 392.53 C 247.52 391.68 251.10 390.84 252.94 387.94 C 256.20 383.26 257.73 377.62 261.04 372.96 C 265.54 367.06 267.31 359.63 268.96 352.53 C 266.67 352.80 264.34 352.71 262.43 351.25 C 265.93 344.52 267.30 337.01 269.81 329.91 C 272.37 322.52 274.90 315.12 277.92 307.90 C 280.71 301.31 282.28 293.76 287.86 288.81 C 288.30 294.22 286.77 299.53 284.14 304.23 C 279.34 313.16 275.81 322.96 275.11 333.13 C 283.49 315.47 294.52 299.06 301.14 280.58 C 304.46 274.97 307.54 268.84 313.26 265.27 Z" fill="#f3b6c8" opacity="1.00" stroke="#f3b6c8" stroke-width="0.25"/>
<path d="M 192.05 261.46 C 193.46 261.05 193.93 261.54 193.48 262.93 C 192.07 263.35 191.59 262.86 192.05 261.46 Z" fill="#d6c3c9" opacity="1.00" stroke="#d6c3c9" stroke-width="0.25"/>
<path d="M 216.18 261.34 C 217.80 260.85 218.36 261.41 217.85 263.04 C 216.22 263.53 215.67 262.96 216.18 261.34 Z" fill="#d2c3c8" opacity="1.00" stroke="#d2c3c8" stroke-width="0.25"/>
<path d="M 231.27 261.19 C 232.65 260.22 233.86 262.70 232.84 263.66 C 231.46 264.62 230.24 262.14 231.27 261.19 Z" fill="#dcced3" opacity="1.00" stroke="#dcced3" stroke-width="0.25"/>
<path d="M 203.22 262.15 C 204.85 261.62 205.41 262.16 204.89 263.79 C 203.25 264.31 202.69 263.76 203.22 262.15 Z" fill="#d1b4bd" opacity="1.00" stroke="#d1b4bd" stroke-width="0.25"/>
<path d="M 185.32 266.26 C 186.33 264.84 188.90 266.46 187.73 267.92 C 186.71 269.32 184.15 267.71 185.32 266.26 Z" fill="#e1d7dc" opacity="1.00" stroke="#e1d7dc" stroke-width="0.25"/>
<path d="M 195.14 266.30 C 196.78 265.77 197.35 266.31 196.83 267.93 C 195.19 268.45 194.62 267.91 195.14 266.30 Z" fill="#d1c2c7" opacity="1.00" stroke="#d1c2c7" stroke-width="0.25"/>
<path d="M 425.94 270.64 C 430.47 267.82 435.82 267.23 440.98 266.50 C 436.02 267.97 431.11 270.24 425.94 270.64 Z" fill="#6a7075" opacity="1.00" stroke="#6a7075" stroke-width="0.25"/>
<path d="M 212.15 267.32 C 213.78 266.79 214.33 267.34 213.80 268.97 C 212.17 269.49 211.61 268.94 212.15 267.32 Z" fill="#d6cace" opacity="1.00" stroke="#d6cace" stroke-width="0.25"/>
<path d="M 223.14 267.28 C 224.52 266.15 225.79 268.64 224.52 269.51 C 223.14 270.64 221.85 268.15 223.14 267.28 Z" fill="#cec1c5" opacity="1.00" stroke="#cec1c5" stroke-width="0.25"/>
<path d="M 204.19 269.50 C 205.45 268.52 206.45 270.80 205.38 271.57 C 204.11 272.62 203.08 270.25 204.19 269.50 Z" fill="#cbb8bf" opacity="1.00" stroke="#cbb8bf" stroke-width="0.25"/>
<path d="M 192.14 270.51 C 193.61 269.50 195.41 271.64 194.46 273.01 C 193.13 274.36 190.69 271.75 192.14 270.51 Z" fill="#915d61" opacity="1.00" stroke="#915d61" stroke-width="0.25"/>
<path d="M 246.29 271.08 C 247.12 269.71 249.62 270.98 248.46 272.39 C 247.64 273.77 245.14 272.48 246.29 271.08 Z" fill="#c6b3b9" opacity="1.00" stroke="#c6b3b9" stroke-width="0.25"/>
<path d="M 426.38 273.57 C 431.40 270.87 437.33 269.94 442.91 271.20 C 442.10 275.16 440.32 279.37 436.52 281.29 C 430.98 283.80 424.72 283.58 418.82 282.84 L 418.49 282.79 C 418.66 282.20 419.00 281.03 419.17 280.44 C 420.17 277.08 423.54 275.23 426.38 273.57 Z" fill="#687279" opacity="1.00" stroke="#687279" stroke-width="0.25"/>
<path d="M 215.10 272.35 C 216.59 271.18 218.10 273.80 216.69 274.78 C 215.19 275.96 213.65 273.31 215.10 272.35 Z" fill="#dcd2d5" opacity="1.00" stroke="#dcd2d5" stroke-width="0.25"/>
<path d="M 396.88 271.47 C 400.81 273.46 404.50 275.89 408.52 277.71 C 406.16 289.73 406.50 302.05 404.50 314.11 C 403.14 322.17 402.39 330.64 398.17 337.84 C 396.83 339.69 395.43 341.49 394.08 343.33 C 393.26 343.37 391.63 343.46 390.81 343.50 C 391.44 330.52 394.24 317.83 396.03 304.99 C 397.62 295.82 398.55 286.34 396.76 277.13 C 396.73 275.24 396.81 273.35 396.88 271.47 Z" fill="#e9e7e9" opacity="1.00" stroke="#e9e7e9" stroke-width="0.25"/>
<path d="M 82.20 273.27 C 87.11 270.51 93.91 275.45 93.06 280.95 C 92.71 283.20 92.99 286.28 90.61 287.50 C 86.68 289.21 81.23 290.64 77.87 287.07 C 76.54 284.77 78.35 282.53 79.39 280.56 C 80.61 278.25 79.47 274.69 82.20 273.27 Z" fill="#e98da4" opacity="1.00" stroke="#e98da4" stroke-width="0.25"/>
<path d="M 408.52 277.71 C 409.63 276.78 410.88 275.99 412.26 275.53 L 412.72 276.12 C 413.95 277.94 415.19 279.77 416.92 281.17 C 417.63 282.43 418.57 280.84 419.17 280.44 C 419.00 281.03 418.66 282.20 418.49 282.79 L 418.82 282.84 C 418.16 282.95 417.50 283.07 416.86 283.19 C 416.08 282.56 415.29 281.95 414.48 281.37 C 414.37 280.89 414.16 279.92 414.05 279.44 C 412.82 278.78 411.63 278.07 410.44 277.37 C 409.52 283.19 409.66 289.11 408.83 294.94 C 407.65 304.66 407.52 314.58 404.83 324.06 C 403.35 329.53 401.73 335.08 398.35 339.73 C 398.31 339.26 398.22 338.31 398.17 337.84 C 402.39 330.64 403.14 322.17 404.50 314.11 C 406.50 302.05 406.16 289.73 408.52 277.71 Z" fill="#4e454c" opacity="1.00" stroke="#4e454c" stroke-width="0.25"/>
<path d="M 195.42 276.34 C 196.68 275.03 198.76 277.22 197.38 278.40 C 196.12 279.72 194.08 277.54 195.42 276.34 Z" fill="#dad1d4" opacity="1.00" stroke="#dad1d4" stroke-width="0.25"/>
<path d="M 219.27 276.00 C 220.92 275.48 221.48 276.03 220.94 277.64 C 219.30 278.16 218.74 277.61 219.27 276.00 Z" fill="#cbb9bf" opacity="1.00" stroke="#cbb9bf" stroke-width="0.25"/>
<path d="M 230.28 276.11 C 231.87 275.57 232.41 276.13 231.91 277.80 C 230.32 278.33 229.77 277.77 230.28 276.11 Z" fill="#d6c1c8" opacity="1.00" stroke="#d6c1c8" stroke-width="0.25"/>
<path d="M 207.09 277.15 C 208.71 276.60 209.28 277.14 208.79 278.78 C 207.16 279.32 206.60 278.78 207.09 277.15 Z" fill="#d2c4c9" opacity="1.00" stroke="#d2c4c9" stroke-width="0.25"/>
<path d="M 241.38 277.16 C 243.00 276.65 243.54 277.22 243.00 278.86 C 241.37 279.35 240.83 278.79 241.38 277.16 Z" fill="#ccc1c5" opacity="1.00" stroke="#ccc1c5" stroke-width="0.25"/>
<path d="M 58.55 285.02 C 57.99 282.92 59.89 280.96 61.99 281.24 C 64.67 280.84 66.71 282.86 68.79 284.18 C 72.00 286.54 76.09 288.38 77.58 292.36 C 79.36 297.08 79.80 302.18 80.68 307.12 C 76.76 306.08 75.39 302.50 74.53 298.97 C 74.59 300.01 74.69 302.10 74.75 303.14 C 73.16 302.57 71.62 301.84 70.40 300.65 C 65.49 296.29 61.18 291.07 58.55 285.02 Z" fill="#6a747d" opacity="1.00" stroke="#6a747d" stroke-width="0.25"/>
<path d="M 213.27 281.41 C 214.57 280.00 216.91 282.19 215.44 283.52 C 214.12 285.03 211.75 282.75 213.27 281.41 Z" fill="#ddcad0" opacity="1.00" stroke="#ddcad0" stroke-width="0.25"/>
<path d="M 236.43 281.41 C 237.82 280.14 239.99 282.48 238.77 283.84 C 237.40 285.08 235.27 282.72 236.43 281.41 Z" fill="#cbb5bd" opacity="1.00" stroke="#cbb5bd" stroke-width="0.25"/>
<path d="M 199.38 282.36 C 200.81 281.09 202.04 283.68 200.63 284.49 C 199.21 285.72 198.01 283.17 199.38 282.36 Z" fill="#d5c6cb" opacity="1.00" stroke="#d5c6cb" stroke-width="0.25"/>
<path d="M 224.11 282.27 C 225.58 281.12 227.15 283.70 225.71 284.69 C 224.23 285.87 222.66 283.25 224.11 282.27 Z" fill="#d8c5cb" opacity="1.00" stroke="#d8c5cb" stroke-width="0.25"/>
<path d="M 205.95 287.75 C 206.00 286.63 206.37 285.71 207.05 285.00 C 209.01 284.13 208.69 286.76 208.96 287.85 C 208.20 287.83 206.70 287.78 205.95 287.75 Z" fill="#e0cfd3" opacity="1.00" stroke="#e0cfd3" stroke-width="0.25"/>
<path d="M 231.17 287.26 C 232.57 287.30 232.58 289.73 231.19 289.80 C 229.79 289.75 229.77 287.34 231.17 287.26 Z" fill="#ded3d8" opacity="1.00" stroke="#ded3d8" stroke-width="0.25"/>
<path d="M 459.37 287.39 C 463.86 284.91 468.57 290.57 467.50 294.95 C 466.56 300.20 461.90 304.69 457.00 306.41 C 453.71 303.97 450.96 300.84 448.29 297.76 C 445.87 295.13 446.63 290.22 450.02 288.88 C 453.18 288.66 456.41 288.72 459.37 287.39 Z" fill="#f7bfcc" opacity="1.00" stroke="#f7bfcc" stroke-width="0.25"/>
<path d="M 217.25 288.12 C 220.14 286.44 217.54 291.46 217.25 288.12 Z" fill="#d0c2c7" opacity="1.00" stroke="#d0c2c7" stroke-width="0.25"/>
<path d="M 237.18 290.26 C 238.77 289.82 239.34 292.39 237.77 292.76 C 236.14 293.32 235.52 290.54 237.18 290.26 Z" fill="#d6c6ce" opacity="1.00" stroke="#d6c6ce" stroke-width="0.25"/>
<path d="M 213.08 291.21 C 216.43 291.29 211.58 294.20 213.08 291.21 Z" fill="#bdabb1" opacity="1.00" stroke="#bdabb1" stroke-width="0.25"/>
<path d="M 224.25 291.18 C 225.24 289.77 227.84 291.32 226.65 292.79 C 225.65 294.21 223.02 292.65 224.25 291.18 Z" fill="#d7ccd2" opacity="1.00" stroke="#d7ccd2" stroke-width="0.25"/>
<path d="M 200.94 294.91 C 201.12 293.45 201.07 291.68 203.03 291.68 C 203.65 292.60 203.99 293.65 204.06 294.82 C 203.28 294.84 201.72 294.89 200.94 294.91 Z" fill="#dcc9d0" opacity="1.00" stroke="#dcc9d0" stroke-width="0.25"/>
<path d="M 205.11 297.30 C 206.74 296.79 207.29 297.35 206.77 298.98 C 205.14 299.47 204.58 298.91 205.11 297.30 Z" fill="#c7b9bd" opacity="1.00" stroke="#c7b9bd" stroke-width="0.25"/>
<path d="M 217.16 299.76 C 216.30 298.03 218.08 296.95 219.63 297.17 C 219.73 297.87 219.94 299.28 220.04 299.99 C 219.32 299.93 217.88 299.82 217.16 299.76 Z" fill="#dfced3" opacity="1.00" stroke="#dfced3" stroke-width="0.25"/>
<path d="M 229.36 299.13 C 230.21 297.72 232.59 299.15 231.48 300.52 C 230.63 301.94 228.23 300.50 229.36 299.13 Z" fill="#ccbfc3" opacity="1.00" stroke="#ccbfc3" stroke-width="0.25"/>
<path d="M 409.25 317.37 C 411.58 309.16 417.39 301.12 426.02 298.94 C 428.63 298.14 431.31 298.82 433.85 299.53 C 433.40 305.21 428.21 308.73 425.09 313.03 C 421.42 318.01 414.82 318.24 409.25 317.37 Z" fill="#677379" opacity="1.00" stroke="#677379" stroke-width="0.25"/>
<path d="M 212.32 300.28 C 213.57 298.99 215.69 301.17 214.42 302.41 C 213.19 303.63 211.18 301.51 212.32 300.28 Z" fill="#d8ccd0" opacity="1.00" stroke="#d8ccd0" stroke-width="0.25"/>
<path d="M 204.24 304.04 C 205.88 303.56 206.40 304.14 205.81 305.76 C 204.17 306.23 203.65 305.66 204.24 304.04 Z" fill="#dacacf" opacity="1.00" stroke="#dacacf" stroke-width="0.25"/>
<path d="M 76.93 316.98 C 76.56 311.88 79.58 306.14 84.90 305.09 C 91.01 303.25 97.33 308.33 97.62 314.56 C 97.55 314.88 97.41 315.52 97.34 315.84 C 100.30 315.53 103.19 314.82 106.04 313.96 C 113.04 311.82 120.70 319.43 118.80 326.46 C 117.69 330.83 115.22 334.80 112.18 338.09 C 109.73 339.95 106.65 340.76 103.95 342.22 L 103.27 342.51 C 102.29 342.93 101.31 343.36 100.32 343.78 C 96.76 345.34 93.04 346.57 89.18 347.16 C 89.26 348.82 89.33 350.49 89.24 352.15 C 87.08 347.85 84.60 343.68 83.29 339.02 C 80.36 331.95 77.55 324.67 76.93 316.98 Z" fill="#ed6782" opacity="1.00" stroke="#ed6782" stroke-width="0.25"/>
<path d="M 223.12 305.30 C 224.64 304.13 226.06 306.80 224.61 307.74 C 223.08 308.94 221.63 306.22 223.12 305.30 Z" fill="#d9ccd0" opacity="1.00" stroke="#d9ccd0" stroke-width="0.25"/>
<path d="M 37.98 309.76 C 40.09 307.67 43.03 306.27 46.05 306.98 C 49.81 307.54 52.49 310.63 54.38 313.70 C 58.77 320.97 60.61 329.36 63.28 337.34 C 63.50 338.42 63.73 339.51 63.94 340.60 C 64.00 340.93 64.13 341.58 64.19 341.90 C 61.75 340.88 59.54 339.42 57.52 337.73 L 57.40 337.24 C 56.60 332.32 53.38 328.36 50.83 324.24 C 47.35 318.75 43.06 313.81 37.98 309.76 Z" fill="#514a59" opacity="1.00" stroke="#514a59" stroke-width="0.25"/>
<path d="M 217.30 309.05 C 219.27 308.30 220.02 311.67 218.00 311.97 C 216.14 312.44 215.43 309.47 217.30 309.05 Z" fill="#d7c8cd" opacity="1.00" stroke="#d7c8cd" stroke-width="0.25"/>
<path d="M 47.55 327.37 C 43.01 322.51 37.11 317.07 37.98 309.76 C 43.06 313.81 47.35 318.75 50.83 324.24 C 53.38 328.36 56.60 332.32 57.40 337.24 C 53.29 334.87 50.96 330.54 47.55 327.37 Z" fill="#676e75" opacity="1.00" stroke="#676e75" stroke-width="0.25"/>
<path d="M 137.26 311.48 C 138.78 313.39 140.14 315.43 141.26 317.61 C 144.03 323.00 148.26 327.44 151.20 332.73 C 157.19 343.08 165.36 351.85 172.86 361.08 C 170.48 361.05 168.10 361.01 165.72 361.06 C 166.82 360.62 167.92 360.16 169.01 359.70 C 162.19 352.58 155.72 345.12 149.59 337.40 C 145.60 332.69 140.71 328.51 138.29 322.68 C 136.70 319.17 137.01 315.22 137.26 311.48 Z" fill="#f4a0b4" opacity="1.00" stroke="#f4a0b4" stroke-width="0.25"/>
<path d="M 457.48 312.36 C 461.82 310.43 469.80 313.93 467.61 319.62 C 465.09 323.19 461.18 326.71 456.45 325.70 C 456.21 321.25 455.84 316.60 457.48 312.36 Z" fill="#f3bece" opacity="1.00" stroke="#f3bece" stroke-width="0.25"/>
<path d="M 424.46 325.64 C 428.07 321.30 431.60 316.91 436.11 313.42 C 436.37 313.87 436.87 314.77 437.12 315.21 C 438.31 317.43 439.31 319.77 440.81 321.83 C 441.19 322.32 441.96 323.29 442.34 323.78 C 440.78 323.44 439.24 322.97 437.73 322.47 C 437.17 326.78 434.99 330.53 432.60 334.06 C 431.11 334.52 429.65 335.42 428.05 335.24 C 426.52 334.31 425.17 333.13 423.80 332.00 C 423.65 329.85 423.86 327.71 424.46 325.64 Z" fill="#69757c" opacity="1.00" stroke="#69757c" stroke-width="0.25"/>
<path d="M 437.12 315.21 C 439.34 314.97 443.99 315.05 443.44 318.29 L 442.53 318.98 C 442.06 319.26 441.14 319.81 440.68 320.09 C 440.71 320.52 440.77 321.39 440.81 321.83 C 439.31 319.77 438.31 317.43 437.12 315.21 Z" fill="#be8da1" opacity="1.00" stroke="#be8da1" stroke-width="0.25"/>
<path d="M 216.14 316.45 C 217.52 316.00 218.01 316.49 217.63 317.90 C 216.24 318.35 215.75 317.87 216.14 316.45 Z" fill="#d3ccce" opacity="1.00" stroke="#d3ccce" stroke-width="0.25"/>
<path d="M 64.85 318.84 C 65.55 316.90 68.67 316.35 69.70 318.26 C 73.51 323.87 70.75 331.24 73.74 337.15 C 74.85 339.46 75.91 341.80 76.53 344.30 C 72.30 345.03 68.13 343.88 64.26 342.26 L 64.19 341.90 C 64.13 341.58 64.00 340.93 63.94 340.60 C 63.73 339.51 63.50 338.42 63.28 337.34 C 62.89 331.15 61.22 324.46 64.85 318.84 Z" fill="#68737b" opacity="1.00" stroke="#68737b" stroke-width="0.25"/>
<path d="M 444.24 319.98 C 446.02 318.70 447.60 316.52 450.04 316.73 C 452.11 318.05 450.07 320.61 448.82 321.78 C 447.29 323.83 444.67 323.94 442.34 323.78 C 441.96 323.29 441.19 322.32 440.81 321.83 C 440.77 321.39 440.71 320.52 440.68 320.09 C 441.14 319.81 442.06 319.26 442.53 318.98 C 442.95 319.23 443.81 319.73 444.24 319.98 Z" fill="#edc1cd" opacity="1.00" stroke="#edc1cd" stroke-width="0.25"/>
<path d="M 217.24 324.18 C 218.55 324.80 218.56 325.48 217.25 326.21 C 215.94 325.58 215.94 324.90 217.24 324.18 Z" fill="#cac5c8" opacity="1.00" stroke="#cac5c8" stroke-width="0.25"/>
<path d="M 441.20 341.05 C 440.51 336.38 438.78 331.82 439.42 327.03 C 439.30 333.04 442.44 338.71 441.26 344.75 C 440.72 351.23 437.48 356.96 434.18 362.40 C 431.70 366.34 430.62 370.94 428.36 374.98 C 429.72 367.77 433.55 361.34 437.43 355.22 C 440.07 351.01 441.23 345.97 441.20 341.05 Z" fill="#829494" opacity="1.00" stroke="#829494" stroke-width="0.25"/>
<path d="M 411.82 339.38 C 413.32 336.84 414.28 333.58 417.14 332.22 C 419.27 331.42 421.59 331.92 423.80 332.00 C 425.17 333.13 426.52 334.31 428.05 335.24 C 429.65 335.42 431.11 334.52 432.60 334.06 C 433.79 334.99 435.32 335.68 436.03 337.10 C 437.29 341.87 434.86 347.30 430.31 349.33 C 423.68 352.46 416.96 355.62 409.77 357.25 C 409.34 353.82 408.62 350.41 408.72 346.95 C 408.83 344.13 410.59 341.80 411.82 339.38 Z" fill="#f5b9c7" opacity="1.00" stroke="#f5b9c7" stroke-width="0.25"/>
<path d="M 394.08 343.33 C 395.43 341.49 396.83 339.69 398.17 337.84 C 398.22 338.31 398.31 339.26 398.35 339.73 L 398.47 340.80 C 402.76 339.60 407.39 337.57 411.82 339.38 C 410.59 341.80 408.83 344.13 408.72 346.95 C 408.62 350.41 409.34 353.82 409.77 357.25 C 406.49 357.44 402.97 356.55 400.73 354.00 C 400.61 351.93 401.54 349.99 402.03 348.03 C 399.87 346.38 398.28 344.18 397.44 341.59 C 395.73 343.34 393.82 345.03 393.09 347.45 C 391.90 347.44 390.72 347.43 389.54 347.42 C 389.97 346.11 390.43 344.82 390.81 343.50 C 391.63 343.46 393.26 343.37 394.08 343.33 Z" fill="#676f75" opacity="1.00" stroke="#676f75" stroke-width="0.25"/>
<path d="M 45.53 338.36 C 48.64 339.24 50.96 341.63 53.89 342.89 C 63.06 346.95 71.61 352.30 79.69 358.22 C 83.62 361.17 88.73 363.07 91.15 367.60 C 81.14 366.69 70.92 365.68 61.63 361.53 C 56.33 359.19 51.45 355.56 48.37 350.57 C 58.37 349.68 66.92 355.34 75.87 358.71 C 70.66 356.03 65.23 353.82 59.80 351.67 C 56.17 350.20 52.11 349.95 48.71 347.91 C 50.42 346.97 51.88 345.66 52.94 344.03 C 50.80 344.06 48.67 344.14 46.54 344.25 C 46.16 342.29 45.82 340.33 45.53 338.36 Z" fill="#6c777b" opacity="1.00" stroke="#6c777b" stroke-width="0.25"/>
<path d="M 103.95 342.22 C 104.55 342.25 105.75 342.30 106.35 342.33 C 107.08 347.59 108.78 352.63 110.14 357.75 C 110.03 358.34 109.80 359.54 109.69 360.14 C 107.28 354.36 105.35 348.41 103.27 342.51 L 103.95 342.22 Z" fill="#f4f6f2" opacity="1.00" stroke="#f4f6f2" stroke-width="0.25"/>
<path d="M 106.35 342.33 C 106.88 342.39 107.93 342.51 108.46 342.57 C 110.86 350.07 112.16 357.85 113.18 365.64 C 112.49 366.59 111.80 367.56 111.12 368.53 L 111.19 367.42 C 111.69 364.15 111.09 360.88 110.14 357.75 C 108.78 352.63 107.08 347.59 106.35 342.33 Z" fill="#bd9fa7" opacity="1.00" stroke="#bd9fa7" stroke-width="0.25"/>
<path d="M 100.32 343.78 C 101.31 343.36 102.29 342.93 103.27 342.51 C 105.35 348.41 107.28 354.36 109.69 360.14 C 109.80 359.54 110.03 358.34 110.14 357.75 C 111.09 360.88 111.69 364.15 111.19 367.42 C 107.80 362.75 106.57 356.94 104.50 351.63 C 103.28 348.99 103.37 345.10 100.32 343.78 Z" fill="#c4c2c3" opacity="1.00" stroke="#c4c2c3" stroke-width="0.25"/>
<path d="M 46.54 344.25 C 48.67 344.14 50.80 344.06 52.94 344.03 C 51.88 345.66 50.42 346.97 48.71 347.91 L 48.61 347.98 C 47.94 346.72 47.26 345.47 46.54 344.25 Z" fill="#919a9c" opacity="1.00" stroke="#919a9c" stroke-width="0.25"/>
<path d="M 254.74 364.84 C 257.61 360.50 260.06 355.89 262.43 351.25 C 264.34 352.71 266.67 352.80 268.96 352.53 C 267.31 359.63 265.54 367.06 261.04 372.96 C 257.73 377.62 256.20 383.26 252.94 387.94 C 251.10 390.84 247.52 391.68 244.43 392.53 C 238.29 393.95 232.07 395.44 225.72 395.07 C 227.35 394.64 229.04 394.27 230.51 393.42 C 239.83 385.02 247.30 374.88 254.74 364.84 Z" fill="#f0a8bb" opacity="1.00" stroke="#f0a8bb" stroke-width="0.25"/>
<path d="M 443.53 364.57 C 447.55 359.08 452.21 353.83 458.21 350.46 C 460.50 353.60 458.00 357.03 456.86 360.08 C 461.02 361.70 465.40 362.61 469.69 363.82 C 466.13 370.56 460.13 375.67 453.64 379.49 C 449.58 381.85 444.79 381.82 440.24 381.89 C 438.99 384.23 437.78 386.59 436.58 388.95 L 436.37 388.70 C 436.13 388.42 435.65 387.84 435.41 387.55 C 436.45 385.35 437.62 383.21 438.79 381.07 C 435.68 376.08 435.81 369.02 439.62 364.45 C 440.92 364.34 442.22 364.49 443.53 364.57 Z" fill="#809896" opacity="1.00" stroke="#809896" stroke-width="0.25"/>
<path d="M 113.78 355.76 C 117.34 358.06 120.61 360.90 124.61 362.44 C 129.06 364.26 133.96 363.83 138.65 364.15 C 139.21 367.86 140.29 371.94 138.50 375.48 C 132.47 377.61 125.57 375.15 120.81 371.22 C 119.40 368.59 118.85 365.53 117.09 363.05 C 115.60 360.81 114.53 358.33 113.78 355.76 Z" fill="#f3b6c6" opacity="1.00" stroke="#f3b6c6" stroke-width="0.25"/>
<path d="M 141.39 355.79 C 143.91 356.59 146.23 357.97 148.79 358.68 C 150.28 357.98 151.64 357.03 153.13 356.34 C 155.54 356.78 155.42 359.89 156.24 361.70 C 154.82 362.43 153.17 363.29 152.90 365.05 C 154.35 370.73 158.56 375.13 160.64 380.55 C 162.61 384.98 164.32 390.64 169.49 392.21 C 177.00 393.86 185.58 393.95 191.62 399.33 C 192.90 403.45 193.60 407.79 193.83 412.10 C 193.11 416.00 192.17 419.86 191.68 423.80 C 188.39 427.06 183.12 426.03 178.92 426.09 C 174.47 423.90 170.89 420.13 166.06 418.69 C 160.90 417.07 155.44 416.34 150.04 416.68 C 145.75 416.90 141.48 417.90 137.17 417.41 C 130.23 416.58 123.49 414.53 116.53 413.91 C 113.97 413.74 111.42 413.64 108.86 413.46 L 108.31 413.38 C 109.45 412.56 110.59 411.74 111.73 410.93 C 111.31 410.59 110.47 409.92 110.04 409.58 C 112.24 409.68 115.15 409.34 115.78 406.79 C 116.32 403.51 118.92 401.39 120.59 398.71 C 119.85 395.35 117.42 392.57 116.96 389.09 C 116.38 385.18 113.36 382.40 111.38 379.17 C 111.57 378.43 111.96 376.96 112.16 376.23 C 113.33 376.05 114.50 375.87 115.67 375.70 C 115.43 373.71 115.21 371.72 114.86 369.75 C 115.97 367.65 116.68 365.38 117.09 363.05 C 118.85 365.53 119.40 368.59 120.81 371.22 C 125.57 375.15 132.47 377.61 138.50 375.48 C 140.29 371.94 139.21 367.86 138.65 364.15 C 139.79 361.44 140.75 358.66 141.39 355.79 Z" fill="#f4b6a1" opacity="1.00" stroke="#f4b6a1" stroke-width="0.25"/>
<path d="M 90.10 374.24 C 92.21 367.54 100.33 367.55 104.80 363.45 C 104.55 364.29 104.30 365.15 104.06 366.01 C 99.14 367.95 92.74 369.08 90.45 374.51 C 90.36 374.44 90.19 374.31 90.10 374.24 Z" fill="#6a7075" opacity="1.00" stroke="#6a7075" stroke-width="0.25"/>
<path d="M 111.12 368.53 C 111.80 367.56 112.49 366.59 113.18 365.64 C 113.71 367.02 114.31 368.37 114.86 369.75 C 115.21 371.72 115.43 373.71 115.67 375.70 C 114.50 375.87 113.33 376.05 112.16 376.23 C 111.96 376.96 111.57 378.43 111.38 379.17 C 110.83 377.62 109.34 376.00 110.51 374.38 C 111.67 372.58 111.67 370.53 111.12 368.53 Z" fill="#e9d2cc" opacity="1.00" stroke="#e9d2cc" stroke-width="0.25"/>
<path d="M 402.30 373.10 C 403.59 370.94 406.38 369.02 409.01 369.56 C 415.96 370.76 422.96 373.84 427.41 379.50 C 430.14 383.64 430.79 388.75 430.79 393.61 C 424.09 394.97 417.20 394.55 410.72 392.42 C 407.99 391.92 405.57 393.30 403.69 395.12 C 404.23 395.23 405.33 395.44 405.88 395.54 C 405.75 395.97 405.47 396.83 405.34 397.26 C 404.49 397.45 403.66 397.65 402.82 397.85 C 402.53 398.34 401.93 399.33 401.64 399.82 C 401.00 399.13 400.36 398.44 399.73 397.76 C 400.75 393.85 403.03 390.52 405.89 387.72 C 408.08 385.79 404.75 384.15 403.62 382.84 C 404.07 379.48 402.75 376.35 402.30 373.10 Z" fill="#819796" opacity="1.00" stroke="#819796" stroke-width="0.25"/>
<path d="M 83.54 379.79 C 84.81 377.20 86.69 373.81 90.10 374.24 C 90.19 374.31 90.36 374.44 90.45 374.51 C 93.68 376.89 96.82 379.91 97.83 383.94 C 99.21 387.58 97.98 391.40 98.07 395.14 L 97.06 395.06 C 97.14 395.84 97.29 397.42 97.37 398.20 C 96.65 398.96 95.92 399.71 95.18 400.46 C 93.50 400.40 91.83 400.35 90.16 400.29 C 85.39 399.24 80.67 397.81 76.10 396.07 C 70.58 393.74 67.79 384.94 72.97 380.92 C 75.87 378.30 80.04 379.67 83.54 379.79 Z" fill="#eb6580" opacity="1.00" stroke="#eb6580" stroke-width="0.25"/>
<path d="M 390.97 387.68 C 398.14 397.19 397.03 409.60 398.55 420.76 C 399.79 418.41 401.20 416.06 403.40 414.49 C 409.87 409.72 417.52 406.94 425.13 404.55 C 424.60 407.78 423.47 410.91 421.49 413.54 C 417.99 418.33 415.26 423.80 410.65 427.66 C 407.39 430.54 403.20 431.98 399.15 433.34 C 398.71 438.30 399.11 443.31 398.46 448.26 C 398.42 444.59 397.96 440.95 397.11 437.40 C 397.31 434.51 398.63 431.88 399.16 429.07 C 398.25 426.84 396.92 424.74 396.67 422.30 C 395.66 414.56 395.10 406.58 391.93 399.35 C 389.66 395.82 390.09 391.57 390.97 387.68 Z" fill="#636870" opacity="1.00" stroke="#636870" stroke-width="0.25"/>
<path d="M 435.41 387.55 C 435.65 387.84 436.13 388.42 436.37 388.70 C 433.94 396.32 429.93 403.34 427.77 411.05 C 426.02 416.97 426.29 423.22 425.44 429.29 C 424.02 427.08 425.04 424.35 425.05 421.93 C 425.26 409.71 431.08 398.69 435.41 387.55 Z" fill="#5f6468" opacity="1.00" stroke="#5f6468" stroke-width="0.25"/>
<path d="M 384.51 395.53 C 385.97 393.14 387.24 390.60 389.17 388.53 C 389.61 391.93 389.78 395.36 389.71 398.80 C 390.46 398.95 391.18 399.11 391.93 399.35 C 395.10 406.58 395.66 414.56 396.67 422.30 C 396.92 424.74 398.25 426.84 399.16 429.07 C 398.63 431.88 397.31 434.51 397.11 437.40 C 396.64 441.65 396.63 445.93 396.38 450.21 C 396.55 445.36 396.38 440.51 395.70 435.71 C 392.22 437.83 390.66 441.70 390.06 445.57 C 389.89 445.54 389.55 445.48 389.39 445.44 C 390.57 441.04 393.32 436.66 392.39 431.99 C 390.31 428.44 386.96 425.91 384.34 422.80 C 384.57 413.70 384.06 404.61 384.51 395.53 Z" fill="#7f9493" opacity="1.00" stroke="#7f9493" stroke-width="0.25"/>
<path d="M 444.13 394.96 C 443.48 390.87 447.91 388.72 451.32 388.45 C 453.85 392.79 450.87 397.40 448.76 401.21 C 446.73 399.61 443.91 397.96 444.13 394.96 Z" fill="#eda0b6" opacity="1.00" stroke="#eda0b6" stroke-width="0.25"/>
<path d="M 451.32 388.45 C 453.98 391.11 458.73 394.01 457.41 398.38 C 455.62 401.26 451.71 404.53 448.42 401.81 L 448.76 401.21 C 450.87 397.40 453.85 392.79 451.32 388.45 Z" fill="#f2b9c7" opacity="1.00" stroke="#f2b9c7" stroke-width="0.25"/>
<path d="M 97.37 398.20 C 99.27 396.19 98.87 393.26 99.07 390.73 C 101.41 391.37 101.82 393.89 102.29 395.86 C 102.93 399.25 103.64 402.66 105.02 405.85 C 103.57 404.95 101.87 404.74 100.21 404.59 C 99.79 403.04 99.38 401.49 98.96 399.94 C 97.18 400.58 95.42 401.29 93.64 401.91 C 92.46 401.39 91.24 400.98 90.16 400.29 C 91.83 400.35 93.50 400.40 95.18 400.46 C 95.92 399.71 96.65 398.96 97.37 398.20 Z" fill="#acc0bc" opacity="1.00" stroke="#acc0bc" stroke-width="0.25"/>
<path d="M 403.69 395.12 C 405.57 393.30 407.99 391.92 410.72 392.42 C 410.70 398.89 407.11 407.57 399.56 407.53 C 399.06 404.28 399.32 401.00 399.73 397.76 C 400.36 398.44 401.00 399.13 401.64 399.82 C 401.93 399.33 402.53 398.34 402.82 397.85 C 403.66 397.65 404.49 397.45 405.34 397.26 C 405.47 396.83 405.75 395.97 405.88 395.54 C 405.33 395.44 404.23 395.23 403.69 395.12 Z" fill="#738284" opacity="1.00" stroke="#738284" stroke-width="0.25"/>
<path d="M 69.13 396.54 C 71.12 395.65 73.24 395.80 75.30 396.29 C 79.42 402.93 84.22 409.08 88.35 415.71 C 90.00 417.74 90.93 420.42 93.16 421.93 C 93.30 423.64 93.41 425.35 93.56 427.07 C 93.91 420.59 91.62 414.31 91.62 407.84 C 94.51 409.13 97.83 409.74 100.28 411.86 C 101.08 418.08 97.66 423.54 95.11 428.88 C 97.20 432.25 101.00 434.04 103.87 436.69 C 103.62 436.61 103.11 436.45 102.85 436.37 C 98.66 434.40 95.99 429.24 90.89 429.51 C 83.20 429.12 74.82 424.87 72.51 417.05 C 70.90 412.43 64.69 410.17 65.10 404.81 C 69.48 407.17 71.38 412.20 75.72 414.63 C 73.82 413.00 71.95 411.32 70.32 409.42 C 71.24 405.06 68.80 400.92 69.13 396.54 Z" fill="#6d7a7f" opacity="1.00" stroke="#6d7a7f" stroke-width="0.25"/>
<path d="M 93.64 401.91 C 95.42 401.29 97.18 400.58 98.96 399.94 C 99.38 401.49 99.79 403.04 100.21 404.59 C 100.35 405.09 100.64 406.09 100.78 406.58 L 101.15 407.89 C 96.62 406.24 91.33 405.82 87.64 402.49 C 89.64 402.35 91.67 402.39 93.64 401.91 Z" fill="#6a7675" opacity="1.00" stroke="#6a7675" stroke-width="0.25"/>
<path d="M 416.81 402.81 C 419.35 401.41 422.03 400.02 425.03 400.42 C 422.04 401.76 418.23 401.75 416.17 404.66 C 416.33 404.20 416.65 403.27 416.81 402.81 Z" fill="#6a7075" opacity="1.00" stroke="#6a7075" stroke-width="0.25"/>
<path d="M 100.21 404.59 C 101.87 404.74 103.57 404.95 105.02 405.85 C 106.79 406.96 108.41 408.29 110.04 409.58 C 110.47 409.92 111.31 410.59 111.73 410.93 C 110.59 411.74 109.45 412.56 108.31 413.38 C 106.85 412.68 105.43 411.88 104.14 410.90 C 103.09 409.41 101.96 407.97 100.78 406.58 C 100.64 406.09 100.35 405.09 100.21 404.59 Z" fill="#879b9b" opacity="1.00" stroke="#879b9b" stroke-width="0.25"/>
<path d="M 104.14 410.90 C 105.43 411.88 106.85 412.68 108.31 413.38 L 108.86 413.46 C 106.95 414.75 107.63 417.09 107.86 418.98 C 108.77 424.78 109.60 430.60 110.01 436.46 C 109.53 438.05 109.06 439.65 108.54 441.24 C 106.48 439.82 104.32 438.44 102.85 436.37 C 103.11 436.45 103.62 436.61 103.87 436.69 C 105.85 436.91 107.08 438.51 108.39 439.82 C 109.58 437.04 107.97 434.15 107.60 431.37 C 106.38 424.56 104.55 417.82 104.14 410.90 Z" fill="#aab3b2" opacity="1.00" stroke="#aab3b2" stroke-width="0.25"/>
<path d="M 107.86 418.98 C 107.63 417.09 106.95 414.75 108.86 413.46 C 111.42 413.64 113.97 413.74 116.53 413.91 C 115.78 421.74 112.66 429.11 110.01 436.46 C 109.60 430.60 108.77 424.78 107.86 418.98 Z" fill="#ebe8e7" opacity="1.00" stroke="#ebe8e7" stroke-width="0.25"/>
<path d="M 116.53 413.91 C 123.49 414.53 130.23 416.58 137.17 417.41 C 141.48 417.90 145.75 416.90 150.04 416.68 C 155.44 416.34 160.90 417.07 166.06 418.69 C 170.89 420.13 174.47 423.90 178.92 426.09 C 182.59 427.98 186.79 426.57 190.65 427.40 C 194.41 429.48 196.75 433.33 200.29 435.73 C 211.74 443.96 226.10 446.44 239.89 447.22 C 239.71 450.26 239.07 453.33 239.57 456.37 C 240.24 458.10 242.36 458.21 243.83 458.94 C 243.85 462.07 244.18 465.19 245.03 468.21 C 245.32 469.43 245.67 470.63 246.01 471.85 C 246.82 476.87 247.20 481.95 247.66 487.02 C 247.85 488.54 247.82 490.40 249.37 491.26 C 247.08 494.14 248.00 497.88 247.27 501.20 C 241.76 503.26 235.72 502.52 229.99 503.54 C 199.00 503.97 167.97 503.01 136.99 504.28 C 130.27 503.96 123.67 505.76 116.95 505.33 C 108.32 506.12 99.71 507.27 91.13 508.57 C 89.91 508.64 87.90 508.85 88.01 507.04 C 87.46 501.12 88.89 495.28 89.67 489.45 C 91.72 475.72 98.10 463.23 103.59 450.64 C 105.16 447.46 107.63 444.73 108.54 441.24 C 109.06 439.65 109.53 438.05 110.01 436.46 C 112.66 429.11 115.78 421.74 116.53 413.91 Z" fill="#f7c9d7" opacity="1.00" stroke="#f7c9d7" stroke-width="0.25"/>
<path d="M 381.30 467.47 C 382.97 452.63 384.20 437.73 384.34 422.80 C 386.96 425.91 390.31 428.44 392.39 431.99 C 393.32 436.66 390.57 441.04 389.39 445.44 C 389.55 445.48 389.89 445.54 390.06 445.57 C 390.66 441.70 392.22 437.83 395.70 435.71 C 396.38 440.51 396.55 445.36 396.38 450.21 C 395.94 455.02 395.87 460.11 393.48 464.45 C 391.00 469.53 387.44 473.95 384.50 478.76 C 384.37 475.85 384.36 472.93 384.16 470.03 C 383.90 469.79 383.38 469.32 383.11 469.08 C 382.66 468.68 381.76 467.87 381.30 467.47 Z" fill="#e8e7e8" opacity="1.00" stroke="#e8e7e8" stroke-width="0.25"/>
<path d="M 410.54 443.49 C 417.62 437.49 426.04 433.37 434.65 430.07 C 434.60 430.87 434.50 432.47 434.45 433.26 C 435.24 434.10 436.03 434.94 436.83 435.79 C 435.83 438.32 435.20 441.38 432.48 442.65 C 432.00 444.73 431.73 446.88 431.00 448.91 C 429.33 451.07 426.18 450.06 423.84 450.28 C 425.21 450.80 426.59 451.29 427.90 451.99 C 427.74 454.85 424.69 455.58 422.53 456.51 C 422.82 456.82 423.39 457.46 423.68 457.78 C 422.22 459.13 421.11 461.22 419.01 461.62 C 414.80 459.64 411.67 455.37 406.91 454.58 C 404.69 455.23 402.80 456.62 401.42 458.44 C 401.21 458.04 400.81 457.23 400.60 456.82 C 404.07 452.49 406.43 447.30 410.54 443.49 Z" fill="#809796" opacity="1.00" stroke="#809796" stroke-width="0.25"/>
<path d="M 397.11 437.40 C 397.96 440.95 398.42 444.59 398.46 448.26 C 398.48 450.84 398.22 453.43 397.79 455.99 C 397.41 458.27 397.06 460.56 396.51 462.82 C 393.63 470.22 387.63 475.75 382.97 482.01 C 382.28 483.18 381.09 483.73 379.77 483.84 C 381.73 482.55 383.31 480.77 384.50 478.76 C 387.44 473.95 391.00 469.53 393.48 464.45 C 395.87 460.11 395.94 455.02 396.38 450.21 C 396.63 445.93 396.64 441.65 397.11 437.40 Z" fill="#463445" opacity="1.00" stroke="#463445" stroke-width="0.25"/>
<path d="M 80.05 440.95 C 83.63 441.51 87.16 440.59 90.66 440.32 C 93.09 442.24 93.07 446.57 90.77 448.72 C 89.21 450.09 87.32 451.15 85.28 451.60 C 81.70 449.29 79.44 445.27 80.05 440.95 Z" fill="#f6bbcc" opacity="1.00" stroke="#f6bbcc" stroke-width="0.25"/>
<path d="M 396.51 462.82 C 397.06 460.56 397.41 458.27 397.79 455.99 C 397.93 456.44 398.22 457.34 398.36 457.79 C 399.10 457.46 399.85 457.14 400.60 456.82 C 400.81 457.23 401.21 458.04 401.42 458.44 C 409.57 462.75 417.27 468.59 422.23 476.47 C 421.43 476.57 419.85 476.77 419.06 476.87 C 417.68 478.18 416.31 479.48 414.94 480.81 C 413.46 478.93 412.39 476.02 409.46 476.41 C 410.12 479.61 413.33 481.47 413.81 484.72 C 410.03 480.35 405.81 476.34 402.59 471.51 C 400.43 468.69 399.36 465.07 396.51 462.82 Z" fill="#6d7d82" opacity="1.00" stroke="#6d7d82" stroke-width="0.25"/>
<path d="M 245.03 468.21 C 244.70 465.30 244.92 462.37 245.48 459.50 C 246.64 460.06 247.82 460.61 249.00 461.15 C 254.21 463.04 259.81 463.33 265.18 464.60 C 269.38 465.63 273.71 465.64 278.00 465.90 C 290.15 467.03 302.35 467.64 314.44 469.34 C 334.61 470.58 354.84 470.38 375.03 470.11 C 377.75 470.03 380.43 469.49 383.11 469.08 C 383.38 469.32 383.90 469.79 384.16 470.03 C 384.36 472.93 384.37 475.85 384.50 478.76 C 383.31 480.77 381.73 482.55 379.77 483.84 C 376.75 485.77 373.87 487.93 371.31 490.45 C 358.87 490.73 346.43 490.25 333.99 490.32 C 315.93 490.02 297.83 488.93 279.79 490.34 C 273.84 490.54 267.87 490.60 261.91 490.64 C 261.29 490.64 260.05 490.65 259.43 490.65 C 258.54 489.34 257.65 488.02 256.76 486.72 C 253.42 481.59 249.79 476.67 246.01 471.85 C 245.67 470.63 245.32 469.43 245.03 468.21 Z" fill="#e1839b" opacity="1.00" stroke="#e1839b" stroke-width="0.25"/>
<path d="M 246.01 471.85 C 249.79 476.67 253.42 481.59 256.76 486.72 C 254.12 487.93 251.73 489.58 249.37 491.26 C 247.82 490.40 247.85 488.54 247.66 487.02 C 247.20 481.95 246.82 476.87 246.01 471.85 Z" fill="#f0adbe" opacity="1.00" stroke="#f0adbe" stroke-width="0.25"/>
<path d="M 279.79 490.34 C 297.83 488.93 315.93 490.02 333.99 490.32 C 346.43 490.25 358.87 490.73 371.31 490.45 C 370.41 491.53 369.38 492.52 368.18 493.26 C 362.38 497.05 356.39 500.61 351.24 505.29 C 349.59 506.93 347.06 506.20 344.98 506.41 C 337.83 506.21 330.63 506.80 323.53 505.69 C 318.72 505.01 313.85 505.66 309.03 505.23 C 299.06 503.70 288.90 504.47 278.90 503.20 C 273.31 502.45 267.43 502.83 262.05 501.04 C 261.38 497.72 258.93 493.44 261.91 490.64 C 267.87 490.60 273.84 490.54 279.79 490.34 Z" fill="#f7c8d5" opacity="1.00" stroke="#f7c8d5" stroke-width="0.25"/>
</svg>